<svg width="367" height="332" viewBox="0 0 367 332" fill="none" xmlns="http://www.w3.org/2000/svg">
<g clip-path="url(#clip0_33_181)">
<path d="M90.9297 84.2172C84.6192 65.2756 65.1316 54.7482 52.3115 59.0546C39.4914 63.3611 30.2352 83.5439 36.5458 102.485C42.3869 120.018 60.0866 130.14 72.2626 128.334C72.1748 128.487 72.117 128.656 72.0923 128.831L71.72 131.949C71.6916 132.187 71.7242 132.428 71.8147 132.649C71.9052 132.871 72.0505 133.065 72.237 133.214C72.4234 133.364 72.6447 133.462 72.8799 133.502C73.1151 133.541 73.3564 133.519 73.5808 133.438L79.8529 131.18C80.0773 131.099 80.2775 130.962 80.4343 130.782C80.5911 130.601 80.6995 130.384 80.749 130.15C80.7986 129.915 80.7877 129.672 80.7174 129.444C80.6471 129.215 80.5197 129.008 80.3474 128.843L78.0866 126.673C78.0062 126.599 77.9174 126.535 77.822 126.482C88.6819 120.605 96.7836 101.788 90.9297 84.2172Z" fill="#F2F2F2"/>
<path d="M68.0847 70.2816C73.3253 72.9974 77.3275 77.6299 79.2652 83.2228C81.2029 88.8158 80.9281 94.9423 78.4976 100.338C77.9549 101.578 79.9507 102.231 80.4898 100.998C83.0417 95.1604 83.3013 88.5696 81.2165 82.5476C79.1317 76.5256 74.8566 71.5177 69.2486 68.5281C68.0649 67.8983 66.8923 69.6471 68.0847 70.2816Z" fill="black"/>
<path d="M346.42 56.607C340.11 37.6655 320.622 27.1381 307.802 31.4445C294.982 35.7509 285.726 55.9337 292.036 74.8753C297.878 92.408 315.577 102.53 327.753 100.723C327.665 100.877 327.608 101.046 327.583 101.221L327.211 104.339C327.182 104.576 327.215 104.817 327.305 105.039C327.396 105.26 327.541 105.455 327.728 105.604C327.914 105.753 328.135 105.852 328.371 105.891C328.606 105.931 328.847 105.909 329.072 105.828L335.344 103.57C335.568 103.489 335.768 103.352 335.925 103.172C336.082 102.991 336.19 102.774 336.24 102.539C336.289 102.305 336.278 102.062 336.208 101.834C336.138 101.605 336.01 101.398 335.838 101.232L333.577 99.0624C333.497 98.9885 333.408 98.9244 333.313 98.8715C344.173 92.9949 352.274 74.1779 346.42 56.607Z" fill="#F2F2F2"/>
<path d="M323.575 42.6714C328.816 45.3872 332.818 50.0197 334.756 55.6127C336.694 61.2056 336.419 67.3321 333.988 72.7276C333.446 73.9681 335.441 74.6205 335.981 73.3881C338.533 67.5502 338.792 60.9594 336.707 54.9374C334.622 48.9154 330.347 43.9075 324.739 40.918C323.556 40.2882 322.383 42.0369 323.575 42.6714Z" fill="black"/>
<path d="M198.053 26.1208C191.742 7.17927 172.255 -3.34815 159.435 0.958274C146.615 5.2647 137.358 25.4475 143.669 44.3891C149.51 61.9218 167.21 72.0434 179.386 70.2372C179.298 70.3905 179.24 70.5593 179.215 70.7344L178.843 73.8525C178.815 74.0902 178.847 74.3312 178.938 74.5527C179.028 74.7742 179.174 74.9688 179.36 75.118C179.546 75.2672 179.768 75.3661 180.003 75.4052C180.238 75.4444 180.479 75.4225 180.704 75.3417L186.976 73.0835C187.2 73.0027 187.401 72.8657 187.557 72.6853C187.714 72.505 187.823 72.2875 187.872 72.0533C187.922 71.8191 187.911 71.5761 187.84 71.3473C187.77 71.1186 187.643 70.9116 187.47 70.7462L185.21 68.5762C185.129 68.5023 185.04 68.4382 184.945 68.3853C195.805 62.5086 203.907 43.6916 198.053 26.1208Z" fill="#F2F2F2"/>
<path d="M175.208 12.1852C180.448 14.901 184.451 19.5335 186.388 25.1264C188.326 30.7194 188.051 36.8459 185.621 42.2413C185.078 43.4819 187.074 44.1343 187.613 42.9018C190.165 37.064 190.424 30.4732 188.34 24.4512C186.255 18.4292 181.98 13.4213 176.372 10.4318C175.188 9.80193 174.015 11.5507 175.208 12.1852Z" fill="black"/>
<path d="M166.403 117.264C167.233 117.264 167.906 116.588 167.906 115.754C167.906 114.921 167.233 114.245 166.403 114.245C165.573 114.245 164.899 114.921 164.899 115.754C164.899 116.588 165.573 117.264 166.403 117.264Z" fill="#CCCCCC"/>
<path d="M163.198 177.822C164.839 177.822 166.168 176.486 166.168 174.839C166.168 173.192 164.839 171.857 163.198 171.857C161.558 171.857 160.229 173.192 160.229 174.839C160.229 176.486 161.558 177.822 163.198 177.822Z" fill="#CCCCCC"/>
<path d="M113.477 166.339C114.425 166.339 115.194 165.567 115.194 164.615C115.194 163.664 114.425 162.892 113.477 162.892C112.53 162.892 111.761 163.664 111.761 164.615C111.761 165.567 112.53 166.339 113.477 166.339Z" fill="#CCCCCC"/>
<path d="M139.549 138.122C140.576 138.122 141.408 137.287 141.408 136.256C141.408 135.225 140.576 134.39 139.549 134.39C138.523 134.39 137.691 135.225 137.691 136.256C137.691 137.287 138.523 138.122 139.549 138.122Z" fill="#CCCCCC"/>
<path d="M231.001 247.382C231.832 247.382 232.505 246.706 232.505 245.872C232.505 245.039 231.832 244.363 231.001 244.363C230.171 244.363 229.498 245.039 229.498 245.872C229.498 246.706 230.171 247.382 231.001 247.382Z" fill="#CCCCCC"/>
<path d="M181.765 216.341C183.406 216.341 184.735 215.005 184.735 213.358C184.735 211.711 183.406 210.376 181.765 210.376C180.125 210.376 178.795 211.711 178.795 213.358C178.795 215.005 180.125 216.341 181.765 216.341Z" fill="#CCCCCC"/>
<path d="M215.585 177.083C216.533 177.083 217.301 176.312 217.301 175.36C217.301 174.408 216.533 173.637 215.585 173.637C214.637 173.637 213.869 174.408 213.869 175.36C213.869 176.312 214.637 177.083 215.585 177.083Z" fill="#CCCCCC"/>
<path d="M226.871 214.12C227.898 214.12 228.73 213.285 228.73 212.254C228.73 211.224 227.898 210.388 226.871 210.388C225.845 210.388 225.013 211.224 225.013 212.254C225.013 213.285 225.845 214.12 226.871 214.12Z" fill="#CCCCCC"/>
<path d="M326.975 310.236C328.615 308.857 326.399 303.487 322.025 298.242C317.652 292.997 312.777 289.863 311.137 291.241C309.497 292.62 311.713 297.99 316.087 303.235C320.46 308.48 325.335 311.614 326.975 310.236Z" fill="#2F2E41"/>
<path d="M292.816 321.21C306.441 321.21 317.487 310.119 317.487 296.437C317.487 282.755 306.441 271.664 292.816 271.664C279.19 271.664 268.145 282.755 268.145 296.437C268.145 310.119 279.19 321.21 292.816 321.21Z" fill="#2F2E41"/>
<path d="M303.258 315.879H295.763V329.363H303.258V315.879Z" fill="#2F2E41"/>
<path d="M288.268 315.879H280.773V329.363H288.268V315.879Z" fill="#2F2E41"/>
<path d="M297.012 331.872C300.461 331.872 303.258 330.819 303.258 329.52C303.258 328.221 300.461 327.168 297.012 327.168C293.562 327.168 290.766 328.221 290.766 329.52C290.766 330.819 293.562 331.872 297.012 331.872Z" fill="#2F2E41"/>
<path d="M282.022 331.558C285.472 331.558 288.268 330.505 288.268 329.206C288.268 327.907 285.472 326.854 282.022 326.854C278.573 326.854 275.776 327.907 275.776 329.206C275.776 330.505 278.573 331.558 282.022 331.558Z" fill="#2F2E41"/>
<path d="M285.069 265.297C287.272 256.389 296.996 251.146 306.789 253.588C316.581 256.029 322.733 265.23 320.53 274.139C318.327 283.047 311.019 283.076 301.227 280.634C291.434 278.192 282.866 274.205 285.069 265.297Z" fill="#E6E6E6"/>
<path d="M276.173 290.25C277.09 288.31 272.843 284.36 266.687 281.429C260.532 278.497 254.799 277.694 253.882 279.634C252.966 281.575 257.213 285.524 263.368 288.456C269.524 291.387 275.257 292.191 276.173 290.25Z" fill="#2F2E41"/>
<path d="M289.127 299.469C293.67 299.469 297.353 295.771 297.353 291.21C297.353 286.648 293.67 282.951 289.127 282.951C284.584 282.951 280.902 286.648 280.902 291.21C280.902 295.771 284.584 299.469 289.127 299.469Z" fill="black"/>
<path d="M285.747 291.002C287.261 291.002 288.488 289.77 288.488 288.249C288.488 286.729 287.261 285.496 285.747 285.496C284.232 285.496 283.005 286.729 283.005 288.249C283.005 289.77 284.232 291.002 285.747 291.002Z" fill="#3F3D56"/>
<path d="M294.287 308.418C294.416 309.129 294.404 309.859 294.252 310.566C294.1 311.272 293.811 311.942 293.401 312.537C292.992 313.131 292.469 313.639 291.864 314.031C291.259 314.423 290.583 314.691 289.874 314.821C289.166 314.95 288.439 314.938 287.735 314.786C287.031 314.633 286.364 314.343 285.772 313.931C285.18 313.52 284.674 312.995 284.284 312.388C283.893 311.78 283.626 311.101 283.497 310.39L283.495 310.379C282.956 307.387 285.26 306.328 288.24 305.786C291.22 305.245 293.748 305.425 294.287 308.418Z" fill="black"/>
<path d="M89.9834 279.118C92.4158 272.728 92.7681 266.927 90.7703 266.16C88.7725 265.393 85.1812 269.952 82.7489 276.342C80.3165 282.732 79.9642 288.533 81.962 289.3C83.9598 290.067 87.5511 285.508 89.9834 279.118Z" fill="#2F2E41"/>
<path d="M63.5627 321.21C77.1882 321.21 88.2338 310.119 88.2338 296.437C88.2338 282.755 77.1882 271.664 63.5627 271.664C49.9372 271.664 38.8916 282.755 38.8916 296.437C38.8916 310.119 49.9372 321.21 63.5627 321.21Z" fill="#2F2E41"/>
<path d="M59.8153 315.879H52.3203V329.363H59.8153V315.879Z" fill="#2F2E41"/>
<path d="M74.8056 315.879H67.3105V329.363H74.8056V315.879Z" fill="#2F2E41"/>
<path d="M58.5662 331.872C62.0157 331.872 64.812 330.819 64.812 329.52C64.812 328.221 62.0157 327.168 58.5662 327.168C55.1167 327.168 52.3203 328.221 52.3203 329.52C52.3203 330.819 55.1167 331.872 58.5662 331.872Z" fill="#2F2E41"/>
<path d="M73.5564 331.558C77.0059 331.558 79.8023 330.505 79.8023 329.206C79.8023 327.907 77.0059 326.854 73.5564 326.854C70.1069 326.854 67.3105 327.907 67.3105 329.206C67.3105 330.505 70.1069 331.558 73.5564 331.558Z" fill="#2F2E41"/>
<path d="M64.1873 298.632C68.8441 298.632 72.6191 294.841 72.6191 290.165C72.6191 285.489 68.8441 281.699 64.1873 281.699C59.5305 281.699 55.7554 285.489 55.7554 290.165C55.7554 294.841 59.5305 298.632 64.1873 298.632Z" fill="black"/>
<path d="M64.1876 292.988C65.7399 292.988 66.9982 291.724 66.9982 290.165C66.9982 288.607 65.7399 287.343 64.1876 287.343C62.6353 287.343 61.377 288.607 61.377 290.165C61.377 291.724 62.6353 292.988 64.1876 292.988Z" fill="#3F3D56"/>
<path d="M39.6308 273.399C37.6388 264.441 44.0067 255.389 53.8539 253.181C63.7011 250.973 73.2988 256.445 75.2909 265.404C77.2829 274.362 70.7568 277.666 60.9096 279.874C51.0623 282.081 41.6229 282.357 39.6308 273.399Z" fill="#E6E6E6"/>
<path d="M46.9207 290.25C47.8372 288.31 43.5902 284.36 37.4347 281.429C31.2792 278.497 25.5462 277.694 24.6297 279.634C23.7132 281.575 27.9602 285.524 34.1157 288.456C40.2712 291.387 46.0042 292.191 46.9207 290.25Z" fill="#2F2E41"/>
<path d="M51.4443 305.374C51.4443 307.799 57.6616 312.586 64.5606 312.586C71.4596 312.586 77.9281 305.76 77.9281 303.336C77.9281 300.911 71.4596 303.806 64.5606 303.806C57.6617 303.806 51.4443 302.949 51.4443 305.374Z" fill="black"/>
<path d="M181.409 297.626C195.034 297.626 206.08 286.535 206.08 272.853C206.08 259.172 195.034 248.081 181.409 248.081C167.783 248.081 156.738 259.172 156.738 272.853C156.738 286.535 167.783 297.626 181.409 297.626Z" fill="#2F2E41"/>
<path d="M177.662 292.295H170.167V305.779H177.662V292.295Z" fill="#2F2E41"/>
<path d="M192.651 292.295H185.156V305.779H192.651V292.295Z" fill="#2F2E41"/>
<path d="M176.412 308.288C179.862 308.288 182.658 307.235 182.658 305.936C182.658 304.637 179.862 303.584 176.412 303.584C172.963 303.584 170.167 304.637 170.167 305.936C170.167 307.235 172.963 308.288 176.412 308.288Z" fill="#2F2E41"/>
<path d="M191.402 307.974C194.852 307.974 197.648 306.921 197.648 305.622C197.648 304.324 194.852 303.271 191.402 303.271C187.953 303.271 185.156 304.324 185.156 305.622C185.156 306.921 187.953 307.974 191.402 307.974Z" fill="#2F2E41"/>
<path d="M157.477 249.815C155.485 240.857 161.853 231.805 171.7 229.597C181.547 227.389 191.145 232.862 193.137 241.82C195.129 250.778 188.603 254.082 178.756 256.29C168.909 258.498 159.469 258.774 157.477 249.815Z" fill="#00FDED"/>
<path d="M207.995 262.028C213.338 256.659 216.308 250.941 214.63 249.257C212.951 247.573 207.259 250.56 201.916 255.929C196.573 261.298 193.602 267.016 195.281 268.7C196.96 270.384 202.652 267.397 207.995 262.028Z" fill="#2F2E41"/>
<path d="M161.523 270.426C163.202 268.742 160.231 263.024 154.888 257.655C149.545 252.286 143.853 249.298 142.175 250.983C140.496 252.667 143.467 258.385 148.81 263.754C154.152 269.123 159.845 272.11 161.523 270.426Z" fill="#2F2E41"/>
<path d="M331.397 115.63C330.578 90.2285 313.252 70.1785 292.699 70.8467C246.955 72.2077 245.838 156.439 290.002 162.489L289.067 169.953L302.707 169.51L301.293 162.122C319.059 158.179 332.14 138.659 331.397 115.63Z" fill="#FF6584"/>
<path d="M269.951 129.713L264.798 129.88C262.778 120.238 262.458 110.314 263.853 100.56L269.006 100.393C267.102 110.603 267.418 120.376 269.951 129.713Z" fill="black"/>
<path d="M303.375 162.006L287.917 162.509L288.028 165.958L303.487 165.456L303.375 162.006Z" fill="#3F3D56"/>
<path d="M258.474 294.09L256.918 293.359L295.191 163.032L296.748 163.764L258.474 294.09Z" fill="#3F3D56"/>
<path d="M363.074 137.109C372.421 113.491 364.506 88.1634 345.395 80.5379C302.913 63.451 268.404 140.233 306.492 163.482L302.668 169.951L315.35 175.011L316.99 167.671C334.847 171.177 354.6 158.522 363.074 137.109Z" fill="#00FDED"/>
<path d="M301.137 125.394L296.346 123.482C298.327 113.831 301.979 104.604 307.135 96.2196L311.926 98.1314C306.123 106.73 302.526 115.817 301.137 125.394Z" fill="black"/>
<path d="M304.572 162.664L303.303 165.871L317.676 171.607L318.946 168.399L304.572 162.664Z" fill="#3F3D56"/>
<path d="M258.172 290.66L256.678 289.806L310.112 167.362L311.606 168.215L258.172 290.66Z" fill="#3F3D56"/>
<path d="M72.6328 117.271C62.5203 93.9731 39.0402 81.7747 20.1885 90.025C-21.8138 108.269 8.15817 186.949 51.4214 176.177L53.3003 183.459L65.8109 177.984L61.7775 171.645C76.8335 161.386 81.801 138.393 72.6328 117.271Z" fill="#00FDED"/>
<path d="M20.7242 153.165L15.998 155.233C10.5711 147.024 6.62027 137.921 4.3252 128.341L9.05145 126.273C11.0419 136.466 14.9329 145.43 20.7242 153.165Z" fill="black"/>
<path d="M63.6695 170.764L49.4907 176.969L50.864 180.133L65.0427 173.928L63.6695 170.764Z" fill="#3F3D56"/>
<path d="M96.4744 294.424C96.2532 294.479 96.0193 294.443 95.8241 294.325C95.629 294.207 95.4885 294.016 95.4336 293.794L58.0796 174.946L59.7475 174.531L97.1015 293.378C97.1287 293.488 97.134 293.603 97.1172 293.715C97.1004 293.827 97.0618 293.934 97.0035 294.031C96.9453 294.129 96.8686 294.213 96.7778 294.28C96.687 294.348 96.5839 294.396 96.4744 294.424Z" fill="#3F3D56"/>
<path d="M106.457 332H16.5201C16.3682 332 16.2225 331.939 16.1151 331.832C16.0076 331.724 15.9473 331.577 15.9473 331.425C15.9473 331.272 16.0076 331.126 16.1151 331.018C16.2225 330.91 16.3682 330.85 16.5201 330.85H106.457C106.609 330.85 106.755 330.91 106.863 331.018C106.97 331.126 107.03 331.272 107.03 331.425C107.03 331.577 106.97 331.724 106.863 331.832C106.755 331.939 106.609 332 106.457 332Z" fill="#CCCCCC"/>
<path d="M335.024 332H245.087C244.935 332 244.789 331.939 244.682 331.832C244.574 331.724 244.514 331.577 244.514 331.425C244.514 331.272 244.574 331.126 244.682 331.018C244.789 330.91 244.935 330.85 245.087 330.85H335.024C335.176 330.85 335.322 330.91 335.429 331.018C335.537 331.126 335.597 331.272 335.597 331.425C335.597 331.577 335.537 331.724 335.429 331.832C335.322 331.939 335.176 332 335.024 332Z" fill="#CCCCCC"/>
<path d="M227.902 308.416H137.964C137.813 308.416 137.667 308.356 137.559 308.248C137.452 308.14 137.392 307.994 137.392 307.841C137.392 307.689 137.452 307.542 137.559 307.434C137.667 307.327 137.813 307.266 137.964 307.266H227.902C228.054 307.266 228.199 307.327 228.307 307.434C228.414 307.542 228.475 307.689 228.475 307.841C228.475 307.994 228.414 308.14 228.307 308.248C228.199 308.356 228.054 308.416 227.902 308.416Z" fill="#CCCCCC"/>
<path d="M180.371 277.809C185.028 277.809 188.803 274.019 188.803 269.343C188.803 264.667 185.028 260.876 180.371 260.876C175.714 260.876 171.939 264.667 171.939 269.343C171.939 274.019 175.714 277.809 180.371 277.809Z" fill="black"/>
<path d="M180.371 272.165C181.923 272.165 183.182 270.901 183.182 269.343C183.182 267.784 181.923 266.521 180.371 266.521C178.819 266.521 177.561 267.784 177.561 269.343C177.561 270.901 178.819 272.165 180.371 272.165Z" fill="#3F3D56"/>
<path d="M187.064 285.001C187.325 286.438 187.006 287.92 186.179 289.121C185.351 290.322 184.082 291.143 182.652 291.405C181.221 291.666 179.745 291.346 178.549 290.515C177.353 289.684 176.535 288.41 176.274 286.974L176.273 286.963C175.733 283.971 178.037 282.912 181.017 282.37C183.997 281.828 186.525 282.009 187.064 285.001Z" fill="black"/>
</g>
<defs>
<clipPath id="clip0_33_181">
<rect width="367" height="332" fill="white"/>
</clipPath>
</defs>
</svg>
