<svg width="71" height="80" viewBox="0 0 71 80" fill="none" xmlns="http://www.w3.org/2000/svg">
<g id="badge">
<path id="Vector" d="M71 55.781V24.219C70.9986 22.8353 70.6334 21.4763 69.9411 20.2783C69.2487 19.0803 68.2536 18.0855 67.0556 17.3937L39.4444 1.61267C38.2452 0.920132 36.8848 0.555542 35.5 0.555542C34.1152 0.555542 32.7548 0.920132 31.5556 1.61267L3.94444 17.3937C2.74637 18.0855 1.75126 19.0803 1.05893 20.2783C0.366608 21.4763 0.00141898 22.8353 0 24.219V55.781C0.00141898 57.1647 0.366608 58.5237 1.05893 59.7217C1.75126 60.9196 2.74637 61.9144 3.94444 62.6063L31.5556 78.3873C32.7548 79.0798 34.1152 79.4444 35.5 79.4444C36.8848 79.4444 38.2452 79.0798 39.4444 78.3873L67.0556 62.6063C68.2536 61.9144 69.2487 60.9196 69.9411 59.7217C70.6334 58.5237 70.9986 57.1647 71 55.781Z" stroke="#00FDED" stroke-width="2" stroke-linecap="round" stroke-linejoin="round"/>
<text id="AN" fill="#00FDED" xml:space="preserve" style="white-space: pre" font-family="Impact" font-size="29" letter-spacing="0.2em"><tspan x="16.5013" y="51.538">AN</tspan></text>
</g>
</svg>
