<svg width="338" height="338" viewBox="0 0 338 338" fill="none" xmlns="http://www.w3.org/2000/svg">
<path d="M338 169C338 180.282 336.894 191.309 334.782 201.971C334.125 205.314 333.363 208.621 332.507 211.892C330.818 218.37 328.747 224.692 326.327 230.841C325.998 231.686 325.659 232.526 325.309 233.366C324.449 235.458 323.546 237.528 322.602 239.573C322.102 240.669 321.585 241.759 321.053 242.844C319.066 246.938 316.912 250.944 314.601 254.846C311.977 259.29 309.155 263.609 306.14 267.776C300.747 275.256 294.754 282.277 288.234 288.76C257.673 319.196 215.532 338 169 338C122.254 338 79.936 319.019 49.3438 288.343C43.0376 282.021 37.227 275.204 31.9849 267.948C25.9394 259.598 20.64 250.668 16.1854 241.258C15.4499 239.714 14.7406 238.154 14.0572 236.584C13.9686 236.391 13.8903 236.204 13.8069 236.011C12.7584 233.596 11.7727 231.149 10.839 228.677C10.0044 226.465 9.2115 224.228 8.47086 221.969C7.3755 218.652 6.37922 215.292 5.49252 211.886C4.77271 209.143 4.1207 206.368 3.54172 203.572C1.43441 193.448 0.234696 182.995 0.0365489 172.297C0.0104425 171.201 0 170.101 0 169C0 164.06 0.213811 159.173 0.6259 154.343C0.771965 152.663 0.938915 150.989 1.13184 149.325C3.26525 130.923 8.35612 113.423 15.9142 97.3106C17.8597 93.1639 19.9671 89.111 22.2308 85.1572C30.6077 70.5262 41.1077 57.267 53.3132 45.8073C55.0189 44.2008 56.7559 42.636 58.5293 41.1077C88.1512 15.4917 126.766 0 169 0C262.336 0 338 75.664 338 169Z" fill="#F2F2F2"/>
<path d="M255.326 121.559H249.009V166.409H255.326V121.559Z" fill="#3F3D56"/>
<path d="M255.341 120.991L255.112 121.56L252.963 126.844L249.009 125.237L243.323 122.932C208.036 111.605 163.439 105.81 146.451 83.6133L145.345 83.1647C138.236 89.0632 133.3 89.408 132.915 78.1156L131.81 77.667C102.816 83.6282 77.7427 66.6057 53.3132 45.8073C55.0189 44.2008 56.7559 42.636 58.5293 41.1077C92.8743 42.0706 122.162 48.0296 133.635 71.5903L134.746 72.0441L148.094 77.4583L149.21 77.9121C178.86 71.6597 212.17 94.1969 245.514 117.001L255.341 120.991V120.991Z" fill="#3F3D56"/>
<path d="M306.14 267.776C300.747 275.256 294.754 282.277 288.234 288.76C213.096 290.226 122.551 290.044 49.3438 288.343C43.0376 282.021 37.227 275.204 31.9849 267.948C47.1896 267.526 63.3385 267.192 80.0873 266.931C86.7168 266.822 93.4455 266.733 100.247 266.65C107.002 266.577 113.83 266.509 120.71 266.451H120.715C183.229 265.945 250.099 266.41 306.14 267.776Z" fill="#D0CDE1"/>
<path d="M332.507 211.892C330.817 218.37 328.747 224.692 326.327 230.841C325.998 231.686 325.659 232.526 325.309 233.366H317.23V211.892H332.507V211.892Z" fill="#3F3D56"/>
<path d="M326.327 230.841C325.998 231.686 325.659 232.526 325.309 233.366C324.449 235.458 323.546 237.528 322.602 239.573C322.102 240.669 321.585 241.759 321.053 242.844C319.066 246.938 316.912 250.944 314.601 254.846C233.867 264.253 159.151 266.507 96.1423 254.846V230.841H326.327V230.841Z" fill="#3F3D56"/>
<path d="M322.602 202.299V239.573C322.102 240.668 321.585 241.759 321.053 242.844C298.123 231.648 277.161 232.984 257.537 242.844V161.04C273.423 151.543 289.583 149.98 306.177 161.04L321.423 199.331L322.602 202.299V202.299Z" fill="#D0CDE1"/>
<path d="M267.644 166.093H295.438V193.887C286.274 198.782 277.007 198.678 267.644 193.887C262.815 184.622 262.815 175.357 267.644 166.093V166.093Z" fill="white"/>
<path d="M316.283 194.203C312.63 198.315 305.932 196.843 298.596 194.203V166.409H306.177L316.283 194.203V194.203Z" fill="white"/>
<path d="M275.224 209.679H268.907V221.681H275.224V209.679Z" fill="#3F3D56"/>
<path d="M303.966 184.096H304.281C307.596 184.096 310.282 186.783 310.282 190.097V190.097C310.282 193.411 307.596 196.098 304.281 196.098H303.966V184.096V184.096Z" fill="#3F3D56"/>
<path d="M68.9777 230.841H69.2936C72.6078 230.841 75.2946 233.527 75.2946 236.842V236.842C75.2946 240.156 72.6079 242.843 69.2936 242.843H68.9777V230.841V230.841Z" fill="#3F3D56"/>
<path d="M334.782 201.971C334.124 205.314 333.363 208.621 332.507 211.892C330.817 218.37 328.747 224.692 326.327 230.841C325.998 231.686 325.659 232.526 325.309 233.366C324.449 235.458 323.546 237.528 322.602 239.573C322.101 240.668 321.585 241.759 321.053 242.844H318.179L317.84 233.366L317.751 230.841L317.23 216.137L316.599 198.382L321.423 199.331L334.782 201.971V201.971Z" fill="#D0CDE1"/>
<path d="M100.246 277.901C113.503 277.901 124.25 267.154 124.25 253.897C124.25 240.64 113.503 229.893 100.246 229.893C86.9891 229.893 76.2421 240.64 76.2421 253.897C76.2421 267.154 86.9891 277.901 100.246 277.901Z" fill="#3F3D56"/>
<path d="M100.246 266.531C107.224 266.531 112.88 260.875 112.88 253.897C112.88 246.92 107.224 241.264 100.246 241.264C93.2689 241.264 87.6125 246.92 87.6125 253.897C87.6125 260.875 93.2689 266.531 100.246 266.531Z" fill="#D0CDE1"/>
<path d="M259.432 227.998H259.432V149.669H246.166C243.534 154.629 242.198 162.173 241.722 171.432C240.096 203.074 214.189 227.998 182.504 227.998H68.6619V233.683H245.038C245.412 237.574 245.792 241.478 246.166 245.37L259.432 245.369V233.683H259.432V227.998Z" fill="#3F3D56"/>
<path d="M156.854 201.776L160.417 199.157L182.303 228.939L178.74 231.558C162.303 229.529 155.085 219.536 156.854 201.776V201.776Z" fill="#3F3D56"/>
<path d="M193.324 101.077L197.365 102.874L153.657 231.576L149.617 229.779C155.033 194.511 171.677 129.985 193.324 101.077V101.077Z" fill="#3F3D56"/>
<path d="M307.756 195.466H301.439V197.993H307.756V195.466Z" fill="#3F3D56"/>
<path d="M251.021 158.372C251.024 158.325 251.026 158.283 251.018 158.239C250.98 157.888 250.669 157.642 250.323 157.68L246.251 158.138L103.232 163.309L101.967 163.448C101.691 163.478 101.468 163.687 101.419 163.964C101.357 164.308 101.585 164.635 101.929 164.697L247.964 182.9C248.312 182.936 248.618 182.678 248.654 182.329L251.021 158.372ZM106.428 164.22L246.019 159.432L249.685 159.023L247.462 181.528L106.428 164.22Z" fill="#3F3D56"/>
<path d="M148.094 77.4583L145.345 83.1647L108.092 160.394L132.915 78.1156L134.746 72.0441L133.635 71.5903L131.81 77.6669L106.199 163.127L105.928 164.368C105.865 164.639 105.99 164.916 106.24 165.051C106.543 165.224 106.929 165.114 107.096 164.806L146.451 83.6133L149.21 77.9121L148.094 77.4583V77.4583Z" fill="#3F3D56"/>
<path d="M26.4871 164.895L24.6563 147.614L24.1556 142.852L21.5684 118.399L19.9984 103.539C19.9671 103.22 19.6958 102.975 19.3724 102.975C19.049 102.975 18.7778 103.215 18.7412 103.533L17.0356 118.399L13.9059 145.731L13.327 150.786L11.6527 165.39L9.32109 185.749C9.31587 185.77 9.31587 185.79 9.31587 185.817C9.31065 186.161 9.59233 186.448 9.94183 186.453L17.5364 186.526L28.078 186.625H28.0833C28.1041 186.625 28.1249 186.62 28.1458 186.62C28.4953 186.583 28.7456 186.27 28.7092 185.926L26.4871 164.895H26.4871ZM20.2383 185.284L17.2182 185.258L10.6564 185.196L12.5551 168.619V168.614L14.6415 150.42L15.2204 145.361L18.3135 118.399L19.3464 109.375L20.3008 118.399L22.9245 143.196L23.4252 147.958L25.2508 165.239L27.379 185.352L20.2383 185.284H20.2383Z" fill="#3F3D56"/>
<path d="M119.99 189.849L116.589 191.705L106.872 194.423L98.7242 196.708L81.0313 201.658L72.8838 203.937C47.5607 199.783 34.7737 208.527 22.6846 217.989L14.5371 220.269L8.47086 221.969C7.3755 218.652 6.37922 215.292 5.49252 211.886C4.7727 209.143 4.12069 206.368 3.54172 203.572C1.43441 193.448 0.234696 182.995 0.0365489 172.297C0.0104425 171.201 0 170.101 0 169C0 164.06 0.213811 159.173 0.6259 154.343C0.771965 152.663 0.938915 150.989 1.13184 149.325L13.9059 145.731L15.2204 145.361L22.9245 143.196L24.1556 142.852L43.7105 137.349C58.7446 136.287 70.1972 142.816 79.9516 152.945C79.9516 152.945 93.8367 148.798 104.055 156.116C107.289 158.437 110.152 161.906 112.093 167.023L113.767 171.848L119.99 189.849H119.99Z" fill="#00FDED"/>
<path d="M89.4481 215.359C99.233 215.359 107.165 207.426 107.165 197.641C107.165 187.856 99.233 179.924 89.4481 179.924C79.6632 179.924 71.731 187.856 71.731 197.641C71.731 207.426 79.6632 215.359 89.4481 215.359Z" fill="#3F3D56"/>
<path d="M89.4481 206.966C94.5981 206.966 98.7729 202.791 98.7729 197.641C98.7729 192.491 94.5981 188.317 89.4481 188.317C84.2982 188.317 80.1233 192.491 80.1233 197.641C80.1233 202.791 84.2982 206.966 89.4481 206.966Z" fill="#D0CDE1"/>
<path d="M22.9768 221.207C22.9768 227.07 20.1288 232.265 15.7368 235.489C15.1996 235.885 14.6363 236.251 14.0573 236.584C13.9686 236.391 13.8904 236.204 13.8069 236.011C12.7585 233.596 11.7727 231.149 10.839 228.677C10.0044 226.465 9.21153 224.228 8.47089 221.969C7.37553 218.652 6.37925 215.292 5.49255 211.886C4.77273 209.143 4.12072 206.368 3.54175 203.572C4.10506 203.515 4.67881 203.489 5.25785 203.489C13.9425 203.489 21.172 209.737 22.6846 217.989C22.8776 219.032 22.9768 220.107 22.9768 221.207V221.207Z" fill="#3F3D56"/>
<path d="M14.584 221.207C14.584 224.264 13.1131 226.976 10.8389 228.677C10.0043 226.465 9.21147 224.228 8.47084 221.969C7.37548 218.652 6.3792 215.292 5.49249 211.886C10.2234 212.001 14.0729 215.631 14.5371 220.269C14.5684 220.576 14.584 220.889 14.584 221.207H14.584Z" fill="#D0CDE1"/>
<path d="M67.424 153.437L12.6033 168.782L7.9845 152.28C14.887 146.889 28.4679 144.49 42.9466 142.494L67.424 153.437V153.437Z" fill="white"/>
<path d="M5.88894 170.659L0.0365489 172.297C0.0104425 171.201 0 170.101 0 169C0 164.06 0.213811 159.173 0.6259 154.343L1.27268 154.16C6.98996 157.912 8.43525 163.45 5.88894 170.659V170.659Z" fill="white"/>
<path d="M18.8452 180.305L16.0482 181.088L17.5357 186.403L20.3326 185.62L18.8452 180.305Z" fill="#3F3D56"/>
<path d="M113.765 171.849C108.954 173.774 103.493 171.435 101.568 166.624C100.096 162.948 101.091 158.745 104.053 156.118C107.287 158.437 110.155 161.905 112.094 167.023L113.765 171.849H113.765Z" fill="#3F3D56"/>
<path d="M15.9142 97.3106C17.8598 93.1639 19.9671 89.111 22.2308 85.1572V118.399H15.9142V97.3106V97.3106Z" fill="#3F3D56"/>
<path d="M252.167 131.666C257.051 131.666 261.011 127.706 261.011 122.822C261.011 117.938 257.051 113.978 252.167 113.978C247.283 113.978 243.323 117.938 243.323 122.822C243.323 127.706 247.283 131.666 252.167 131.666Z" fill="#3F3D56"/>
</svg>
