<svg width="406" height="298" viewBox="0 0 406 298" fill="none" xmlns="http://www.w3.org/2000/svg">
<g clip-path="url(#clip0_11_22)">
<path opacity="0.1" d="M29.362 119.584C37.9057 138.878 27.0046 161.102 14.1931 177.854C9.89665 183.461 5.17381 189.331 4.57115 196.389C3.85371 204.997 9.68346 212.912 16.6037 218.084C29.2185 227.512 46.4535 230.426 61.4666 225.671C74.4421 221.572 85.3514 212.28 98.4376 208.534C120.338 202.267 143.534 212.657 162.274 225.598C175.536 234.754 189.742 245.887 205.73 243.932C216.988 242.555 226.54 234.656 233.018 225.352C236.146 220.843 238.868 215.83 243.427 212.797C246.137 210.993 249.318 210.038 252.504 209.358C281.57 203.148 312.412 218.306 341.094 210.51C360.465 205.243 375.912 189.933 385.514 172.312C395.115 154.691 399.6 134.787 403.335 115.068C405.988 101.053 408.189 85.9328 402.105 73.0377C395.652 59.3967 380.717 51.1293 365.708 49.584C350.699 48.0387 335.641 52.322 321.813 58.3638C304.533 65.918 287.597 76.4931 268.734 76.53C255.89 76.5545 243.644 71.6113 231.362 67.869C210.789 61.5855 189.471 58.4621 168.181 55.5806C147.81 52.8221 127.242 50.2521 106.748 51.8917C92.247 53.0434 79.4437 58.5851 65.3736 61.1469C56.2026 62.8192 46.9865 61.5568 37.9877 64.3891C26.9185 67.8527 15.505 75.8905 14.8942 88.5355C14.3161 100.558 24.8277 109.341 29.362 119.584Z" fill="black"/>
<g opacity="0.5">
<path opacity="0.5" d="M286.113 75.0749C284.063 75.6651 281.517 77.1899 280.271 81.3748C277.811 89.5726 283.501 95.1798 281.636 103.693C281.126 105.957 280.149 108.089 278.766 109.952C276.483 113.047 273.998 114.514 271.596 116.682C268.542 119.452 266.354 123.044 265.295 127.028C264.134 131.425 264.037 136.035 265.012 140.476C265.869 144.19 267.328 146.891 268.599 149.904C270.181 153.748 271.416 157.726 272.289 161.791C272.773 163.766 273.048 165.787 273.109 167.82C273.15 170.374 272.752 173.148 272.362 175.887L268.89 200.115C268.427 203.341 267.959 206.62 267.943 209.69C267.918 213.235 268.488 216.281 269.054 219.253C270.284 225.663 271.584 232.316 274.384 235.697C277.184 239.079 281.931 237.907 284.854 231.004C287.634 224.446 287.691 215.674 290.143 208.657C294.005 197.59 301.688 196.114 305.947 185.568C310.047 175.452 308.784 163.024 310.867 151.498C312.351 143.231 315.512 135.689 317.385 127.52C320.079 115.752 319.812 103.537 317.66 94.4953C315.508 85.4532 311.646 79.2434 307.382 74.5338C305.574 72.5377 303.643 70.7629 301.372 70.5866C298.957 70.4022 296.862 73.4558 294.464 74.3535C291.684 75.3905 288.913 74.2797 286.113 75.0749Z" fill="black"/>
<path opacity="0.5" d="M299.187 71.1604C299.187 71.1604 295.087 175.796 277.897 237.501" stroke="#535461" stroke-width="2" stroke-miterlimit="10"/>
<path opacity="0.5" d="M280.164 81.8872C280.164 81.8872 298.523 98.6146 295.058 130.487" stroke="#535461" stroke-width="2" stroke-miterlimit="10"/>
<path opacity="0.5" d="M264.741 129.483C264.741 129.483 294.915 135.55 292.676 153.593" stroke="#535461" stroke-width="2" stroke-miterlimit="10"/>
<path opacity="0.5" d="M317.697 94.2453C317.697 94.2453 305.492 104.931 294.612 135.197" stroke="#535461" stroke-width="2" stroke-miterlimit="10"/>
<path opacity="0.5" d="M305.763 185.72C305.763 185.72 297.432 192.278 290.745 169.402" stroke="#535461" stroke-width="2" stroke-miterlimit="10"/>
<path opacity="0.5" d="M269.825 199.062C269.825 199.062 286.814 196.844 288.38 186.203" stroke="#535461" stroke-width="2" stroke-miterlimit="10"/>
</g>
<path d="M327.179 4.89406C322.973 5.51709 317.914 7.46405 315.836 13.4771C311.756 25.2654 324.162 34.1887 321.305 46.5058C320.448 50.1947 318.336 53.1951 316.11 55.3839C311.748 59.6713 306.783 61.5322 302.069 64.4424C297.354 67.3526 292.459 71.9187 290.249 78.9319C288.122 85.6786 289.044 93.1345 291.254 98.7048C293.464 104.275 296.809 108.427 299.798 113.01C303.437 118.651 306.48 124.656 308.878 130.926C309.948 133.685 310.928 136.595 311.277 139.898C311.662 143.665 311.174 147.719 310.69 151.687L306.378 186.937C305.804 191.63 305.226 196.405 305.558 200.926C305.931 206.144 307.472 210.694 308.993 215.137C312.273 224.72 315.782 234.677 321.96 239.985C328.139 245.293 337.847 244.133 343.07 234.312C348.043 224.962 347.128 212.071 351.368 202.029C358.05 186.203 373.772 184.925 381.336 169.902C388.597 155.491 384.534 137.054 387.449 120.306C389.54 108.304 395.193 97.5777 398.108 85.7688C402.29 68.7544 400.293 50.7399 394.759 37.1685C389.224 23.5972 380.5 13.9935 371.12 6.5541C367.143 3.40207 362.92 0.553362 358.214 0.0287073C353.196 -0.528739 349.195 3.69309 344.361 4.7547C338.745 6.01305 332.882 4.04969 327.179 4.89406Z" fill="black"/>
<path d="M353.77 0.672211C353.77 0.672211 357.726 154.281 329.434 243.108" stroke="#535461" stroke-width="2" stroke-miterlimit="10"/>
<path d="M315.672 14.2149C315.672 14.2149 355.693 41.0297 352.265 87.5518" stroke="#535461" stroke-width="2" stroke-miterlimit="10"/>
<path d="M289.401 82.4815C289.401 82.4815 352.569 94.9913 350.076 121.294" stroke="#535461" stroke-width="2" stroke-miterlimit="10"/>
<path d="M394.816 36.8652C394.816 36.8652 370.808 51.1539 351.896 94.4338" stroke="#535461" stroke-width="2" stroke-miterlimit="10"/>
<path d="M380.967 170.156C380.967 170.156 364.503 178.821 347.953 144.333" stroke="#535461" stroke-width="2" stroke-miterlimit="10"/>
<path d="M308.145 185.548C308.145 185.548 343.045 184.293 345.042 168.816" stroke="#535461" stroke-width="2" stroke-miterlimit="10"/>
<path opacity="0.1" d="M200.151 256.503C296.984 256.503 375.482 248.964 375.482 239.665C375.482 230.365 296.984 222.827 200.151 222.827C103.318 222.827 24.8195 230.365 24.8195 239.665C24.8195 248.964 103.318 256.503 200.151 256.503Z" fill="black"/>
<path d="M27.5704 219.621C27.5704 219.621 31.0059 224.13 25.9838 230.893C20.9617 237.656 16.821 243.403 18.5142 247.629C18.5142 247.629 26.0904 235.033 32.2563 234.857C38.4222 234.681 34.3554 227.196 27.5704 219.621Z" fill="black"/>
<path opacity="0.1" d="M27.5704 219.621C27.8698 220.056 28.1058 220.531 28.2714 221.031C34.2898 228.098 37.4916 234.693 31.7111 234.861C26.3241 235.017 19.863 244.645 18.3133 247.08C18.3644 247.268 18.426 247.452 18.4978 247.633C18.4978 247.633 26.074 235.037 32.2399 234.861C38.4059 234.685 34.3554 227.196 27.5704 219.621Z" fill="black"/>
<path d="M33.9577 225.348C33.9577 226.93 33.7814 228.217 33.5477 228.217C33.314 228.217 33.1378 226.934 33.1378 225.348C33.1378 223.761 33.3591 224.528 33.5764 224.528C33.7937 224.528 33.9577 223.765 33.9577 225.348Z" fill="#FFD037"/>
<path d="M36.1428 227.233C34.753 227.991 33.5436 228.463 33.4411 228.254C33.3386 228.045 34.3759 227.29 35.7656 226.536C37.1554 225.782 36.6061 226.331 36.7127 226.536C36.8193 226.741 37.5367 226.471 36.1428 227.233Z" fill="#FFD037"/>
<path d="M9.42106 219.621C9.42106 219.621 5.98553 224.13 11.0076 230.893C16.0298 237.656 20.154 243.403 18.5142 247.629C18.5142 247.629 10.9379 235.033 4.77202 234.857C-1.3939 234.681 2.64018 227.196 9.42106 219.621Z" fill="black"/>
<path opacity="0.1" d="M9.42108 219.621C9.1217 220.056 8.88565 220.531 8.72003 221.031C2.70169 228.098 -0.500162 234.693 5.28039 234.861C10.6674 235.017 17.1285 244.645 18.6782 247.08C18.627 247.268 18.5654 247.452 18.4937 247.633C18.4937 247.633 10.9175 235.037 4.75153 234.861C-1.41439 234.685 2.6402 227.196 9.42108 219.621Z" fill="black"/>
<path d="M3.03787 225.348C3.03787 226.93 3.21416 228.217 3.44784 228.217C3.68152 228.217 3.85781 226.934 3.85781 225.348C3.85781 223.761 3.63643 224.528 3.41914 224.528C3.20186 224.528 3.03787 223.765 3.03787 225.348Z" fill="#FFD037"/>
<path d="M0.84455 227.233C2.23434 227.991 3.44375 228.463 3.54624 228.254C3.64873 228.045 2.61151 227.29 1.22172 226.536C-0.168073 225.782 0.381286 226.331 0.274694 226.536C0.168102 226.741 -0.545243 226.471 0.84455 227.233Z" fill="#FFD037"/>
<path d="M4.12839 247.043C4.12839 247.043 13.7339 246.748 16.6283 244.686C19.5227 242.624 31.3872 240.177 32.121 243.456C32.8549 246.735 46.556 259.897 35.7124 259.983C24.8687 260.069 10.5157 258.294 7.62542 256.536C4.73514 254.777 4.12839 247.043 4.12839 247.043Z" fill="#A8A8A8"/>
<path opacity="0.2" d="M35.9091 258.852C25.0655 258.938 10.7125 257.163 7.82219 255.405C5.62066 254.064 4.74333 249.256 4.45225 247.039H4.13248C4.13248 247.039 4.73923 254.786 7.62951 256.544C10.5198 258.302 24.8728 260.081 35.7329 259.995C38.865 259.971 39.9432 258.856 39.8858 257.208C39.4226 258.204 38.2378 258.827 35.9091 258.852Z" fill="black"/>
<path d="M129.152 184.838C129.152 184.838 177.221 154.134 210.453 154.134C210.453 154.134 250.462 147.904 293.98 158.434C337.498 168.964 353.573 182.617 365.639 178.608L314.95 180.092L129.152 184.838Z" fill="#8CD0F3"/>
<path opacity="0.1" d="M129.152 184.838C129.152 184.838 177.221 154.134 210.453 154.134C210.453 154.134 250.462 147.904 293.98 158.434C337.498 168.964 353.573 182.617 365.639 178.608L314.95 180.092L129.152 184.838Z" fill="#8CD0F3"/>
<path d="M355.721 231.832H62.5612L70.6212 199.545L120.473 186.294L355.721 192.475V231.832Z" fill="#121C3F"/>
<path d="M371.153 211.657V221.962C371.153 221.962 362.449 228.274 361.658 233.217C361.658 233.217 349.195 236.382 345.636 236.382C345.312 236.382 344.96 236.382 344.591 236.419C345.147 234.927 345.581 233.393 345.89 231.832C346.763 227.451 346.653 222.93 345.569 218.596C344.484 214.263 342.451 210.223 339.617 206.77C336.783 203.316 333.217 200.533 329.178 198.623C325.139 196.713 320.726 195.722 316.258 195.722C311.79 195.722 307.377 196.713 303.338 198.623C299.298 200.533 295.733 203.316 292.899 206.77C290.065 210.223 288.032 214.263 286.947 218.596C285.862 222.93 285.752 227.451 286.625 231.832C287.045 233.944 287.689 236.005 288.548 237.98H271.649C271.649 237.98 271.493 238.034 271.239 238.144C270.333 238.554 268.197 239.636 267.89 241.337H127.84L124.971 241.313C125.581 240.289 126.128 239.23 126.611 238.14C127.51 236.122 128.179 234.009 128.603 231.84C129.437 227.699 129.393 223.43 128.475 219.306C127.557 215.183 125.785 211.298 123.274 207.902C120.762 204.505 117.567 201.673 113.893 199.586C110.22 197.5 106.149 196.207 101.945 195.79C97.7411 195.372 93.4962 195.84 89.4841 197.164C85.4719 198.487 81.7817 200.637 78.6512 203.473C75.5208 206.31 73.0196 209.771 71.3089 213.633C69.5981 217.495 68.7159 221.673 68.7189 225.897C68.7188 227.888 68.9138 229.875 69.3011 231.828C69.9618 235.135 71.173 238.308 72.8842 241.214C70.8836 240.727 66.5174 239.341 66.5174 239.341C66.5174 239.341 47.9253 237.365 43.1779 233.193L43.8953 232.697L46.9373 230.619L45.5516 225.29C45.3843 225.065 45.2466 224.82 45.1416 224.561C44.7727 223.671 44.4488 222.019 45.7525 219.945C47.7285 216.781 46.7405 205.509 46.7405 205.509C46.7405 205.509 73.6426 186.921 126.656 182.764C126.656 182.764 127.922 183.748 130.538 183.953C132.309 184.097 134.699 183.879 137.737 182.764C137.737 182.764 142.087 184.74 160.695 174.063C160.695 174.063 192.349 152.306 233.891 154.29C233.891 154.29 276.618 151.715 313.015 165.766C328.7 171.816 340.635 175.042 349.141 176.747C356.996 178.325 361.928 178.616 364.187 178.641H364.237C364.974 178.641 365.413 178.641 365.569 178.641H365.635C365.635 178.641 365.635 183.351 365.885 188.913V188.941C365.975 190.876 366.098 192.913 366.27 194.893V195.016C366.746 200.529 367.565 205.538 368.988 206.53L371.153 211.657Z" fill="#2856B8"/>
<path d="M51.0165 205.058C51.0165 205.058 62.9343 195.762 77.771 197.742C77.771 197.742 64.2708 208.423 58.1868 207.731L57.1496 206.841L51.0001 207.185C51.0001 207.185 50.0817 205.751 51.0165 205.058Z" fill="#8CD0F3"/>
<path opacity="0.2" d="M62.5858 221.142V226.631C62.5858 226.631 62.1758 231.873 57.4407 232.07L43.9117 232.738L46.9496 230.66L45.5639 225.331C45.3959 225.108 45.258 224.864 45.1539 224.606C46.3838 223.474 49.2823 221.564 55.1776 221.154L62.5858 221.142Z" fill="white"/>
<path opacity="0.2" d="M125.541 198.139L135.925 197.729C135.925 197.729 131.723 201.041 128.755 201.341C125.787 201.64 125.541 198.139 125.541 198.139Z" fill="white"/>
<path opacity="0.2" d="M147.4 229.635C147.4 229.635 241.312 216.58 264.011 220.732C264.011 220.732 270.686 221.179 273.211 223.847C275.737 226.516 273.211 224.786 273.211 224.786L147.4 229.635Z" fill="white"/>
<path opacity="0.5" d="M199.97 192.995C199.97 192.995 201.159 190.77 203.086 190.72L215.598 190.077C215.598 190.077 215.402 191.807 213.175 192.45L199.97 192.995Z" fill="#18218A"/>
<path opacity="0.5" d="M272.371 189.237C272.371 189.237 273.56 187.011 275.486 186.962L287.999 186.302C287.999 186.302 287.802 188.031 285.576 188.675L272.371 189.237Z" fill="#18218A"/>
<path d="M229.648 158.741L220.046 183.916L185.429 183.953H176.516H168.764H162.061H154.468C154.468 183.953 159.092 180.559 166.542 176.235C169.001 174.8 171.793 173.267 174.823 171.726C177.611 170.3 180.612 168.857 183.764 167.488C186.224 166.406 188.815 165.365 191.463 164.393C203.471 160.003 216.968 157.056 229.648 158.741Z" fill="#8CD0F3"/>
<path d="M284.043 177.124C284.043 177.124 269.579 179.268 255.775 180.854C250.499 181.461 245.321 181.986 241.082 182.277L240.492 182.318C238.852 182.424 237.331 182.494 236.039 182.518C233.99 182.555 232.456 182.465 231.69 182.219L235.679 158.138C235.679 158.138 240.598 158.192 247.875 158.548L249.466 158.634C250.979 158.72 252.573 158.819 254.238 158.934C256.616 159.098 259.121 159.294 261.703 159.532C274.175 160.676 288.302 162.729 297.248 166.426C316.283 174.304 284.043 177.124 284.043 177.124Z" fill="#8CD0F3"/>
<path d="M350.703 189.237V195.664C350.703 195.664 340.319 195.811 342.545 193.737C343.986 192.36 345.294 190.85 346.452 189.228L350.703 189.237Z" fill="#8CD0F3"/>
<path d="M366.262 195.008L357.829 195.668V187.941C357.829 187.941 361.736 182.453 365.643 188.536L365.868 188.892L366.262 195.008Z" fill="#8CD0F3"/>
<path d="M98.9623 250.027C112.292 250.027 123.097 239.223 123.097 225.897C123.097 212.57 112.292 201.767 98.9623 201.767C85.633 201.767 74.8275 212.57 74.8275 225.897C74.8275 239.223 85.633 250.027 98.9623 250.027Z" fill="#182A7C"/>
<path d="M118.321 225.876C118.33 230.855 116.425 235.648 113.001 239.263C109.577 242.879 104.895 245.041 99.9214 245.304C94.9481 245.567 90.064 243.909 86.2779 240.675C82.4917 237.44 80.0929 232.875 79.5769 227.923C79.061 222.97 80.4673 218.009 83.5053 214.063C86.5434 210.118 90.981 207.49 95.9017 206.722C100.822 205.955 105.85 207.106 109.946 209.938C114.042 212.77 116.893 217.067 117.911 221.941C118.181 223.236 118.318 224.554 118.321 225.876Z" fill="#3F8FFE"/>
<path opacity="0.5" d="M98.9336 242.551C108.124 242.551 115.574 235.083 115.574 225.872C115.574 216.661 108.124 209.194 98.9336 209.194C89.7432 209.194 82.293 216.661 82.293 225.872C82.293 235.083 89.7432 242.551 98.9336 242.551Z" fill="#18218A"/>
<path d="M104.501 207.255V207.96L98.9623 226.294L94.5182 206.952C97.8156 206.183 101.256 206.288 104.501 207.255Z" fill="#3F8FFE"/>
<path d="M104.46 244.506C101.288 245.445 97.9281 245.561 94.6986 244.842L98.9582 226.294L104.46 244.506Z" fill="#3F8FFE"/>
<path d="M118.321 225.876C118.324 227.899 118.011 229.91 117.394 231.836H117.317L98.9787 226.299L117.944 221.946C118.202 223.24 118.328 224.557 118.321 225.876Z" fill="#3F8FFE"/>
<path d="M98.9623 226.294L80.6244 231.832H80.4809C79.4596 228.631 79.2775 225.221 79.9521 221.929L98.9623 226.294Z" fill="#3F8FFE"/>
<path d="M98.9336 228C100.109 228 101.061 227.047 101.061 225.872C101.061 224.697 100.109 223.745 98.9336 223.745C97.7585 223.745 96.8058 224.697 96.8058 225.872C96.8058 227.047 97.7585 228 98.9336 228Z" fill="#182A7C"/>
<path d="M316.11 250.027C329.44 250.027 340.245 239.223 340.245 225.897C340.245 212.57 329.44 201.767 316.11 201.767C302.781 201.767 291.975 212.57 291.975 225.897C291.975 239.223 302.781 250.027 316.11 250.027Z" fill="#182A7C"/>
<path d="M335.473 225.876C335.482 230.855 333.577 235.648 330.153 239.263C326.729 242.879 322.047 245.041 317.074 245.304C312.1 245.567 307.216 243.909 303.43 240.675C299.644 237.44 297.245 232.875 296.729 227.923C296.213 222.97 297.619 218.009 300.657 214.063C303.696 210.118 308.133 207.49 313.054 206.722C317.974 205.955 323.002 207.106 327.098 209.938C331.194 212.77 334.045 217.067 335.063 221.941C335.333 223.236 335.471 224.554 335.473 225.876Z" fill="#3F8FFE"/>
<path opacity="0.5" d="M316.086 242.551C325.276 242.551 332.726 235.083 332.726 225.872C332.726 216.661 325.276 209.194 316.086 209.194C306.895 209.194 299.445 216.661 299.445 225.872C299.445 235.083 306.895 242.551 316.086 242.551Z" fill="#18218A"/>
<path d="M321.649 207.255V207.96L316.11 226.294L311.666 206.952C314.964 206.183 318.404 206.288 321.649 207.255Z" fill="#3F8FFE"/>
<path d="M321.612 244.506C318.44 245.445 315.08 245.561 311.851 244.842L316.11 226.294L321.612 244.506Z" fill="#3F8FFE"/>
<path d="M335.473 225.876C335.476 227.899 335.163 229.91 334.547 231.836H334.452L316.11 226.294L335.075 221.941C335.341 223.236 335.474 224.555 335.473 225.876Z" fill="#3F8FFE"/>
<path d="M316.11 226.294L297.772 231.832H297.629C296.608 228.631 296.426 225.221 297.1 221.929L316.11 226.294Z" fill="#3F8FFE"/>
<path d="M316.086 228C317.261 228 318.213 227.047 318.213 225.872C318.213 224.697 317.261 223.745 316.086 223.745C314.911 223.745 313.958 224.697 313.958 225.872C313.958 227.047 314.911 228 316.086 228Z" fill="#182A7C"/>
<path opacity="0.2" d="M174.827 171.751L168.764 183.969H162.061L166.541 176.26C169.014 174.825 171.797 173.296 174.827 171.751Z" fill="white"/>
<path opacity="0.2" d="M191.463 164.418L185.425 183.957H176.512L183.768 167.504C186.245 166.43 188.819 165.398 191.463 164.418Z" fill="white"/>
<path opacity="0.2" d="M254.246 158.954L241.09 182.281L240.5 182.322C238.86 182.428 237.339 182.498 236.048 182.523L247.883 158.573L249.474 158.659C250.966 158.741 252.573 158.839 254.246 158.954Z" fill="white"/>
<path opacity="0.2" d="M154.698 183.887L147.187 235.611L209.916 234.238L220.215 184.113L154.698 183.887Z" stroke="white" stroke-miterlimit="10"/>
<path opacity="0.5" d="M271.243 238.128C270.337 238.538 268.201 239.62 267.894 241.321H127.84L124.971 241.296C125.581 240.273 126.128 239.213 126.611 238.124L271.243 238.128Z" fill="#18218A"/>
<path d="M150.159 275.505C151.114 274.616 152.012 273.567 152.291 272.292C152.57 271.017 152.024 269.484 150.803 269.013C149.438 268.488 147.974 269.423 146.867 270.394C145.76 271.366 144.489 272.444 143.042 272.239C143.787 271.563 144.345 270.705 144.66 269.75C144.976 268.795 145.038 267.774 144.842 266.787C144.778 266.38 144.605 265.997 144.342 265.68C143.583 264.861 142.206 265.217 141.3 265.857C138.43 267.906 137.61 271.812 137.59 275.346C137.298 274.071 137.544 272.743 137.536 271.435C137.528 270.128 137.171 268.681 136.069 267.976C135.382 267.607 134.609 267.426 133.83 267.451C132.531 267.402 131.083 267.533 130.198 268.484C129.095 269.665 129.378 271.644 130.341 272.944C131.305 274.243 132.76 275.059 134.101 275.956C135.177 276.598 136.095 277.473 136.786 278.518C136.868 278.664 136.935 278.818 136.987 278.977H145.129C146.955 278.052 148.647 276.884 150.159 275.505Z" fill="black"/>
<path d="M320.333 282.4C321.084 281.787 321.632 280.961 321.903 280.031C322.108 279.088 321.706 277.961 320.804 277.616C319.796 277.231 318.718 277.928 317.902 278.637C317.086 279.346 316.147 280.149 315.077 279.998C315.627 279.499 316.039 278.867 316.271 278.162C316.504 277.458 316.55 276.705 316.406 275.977C316.359 275.675 316.232 275.392 316.037 275.157C315.475 274.559 314.462 274.817 313.79 275.288C311.658 276.788 311.064 279.682 311.051 282.289C310.838 281.35 311.019 280.371 311.01 279.42C311.002 278.469 310.74 277.37 309.928 276.87C309.425 276.6 308.859 276.466 308.288 276.481C307.329 276.444 306.263 276.542 305.607 277.243C304.787 278.112 305.004 279.576 305.714 280.522C306.423 281.469 307.497 282.08 308.489 282.744C309.284 283.217 309.962 283.863 310.473 284.634C310.533 284.741 310.583 284.853 310.621 284.97H316.627C317.973 284.284 319.219 283.42 320.333 282.4Z" fill="black"/>
<path d="M346.981 295.438C347.732 294.826 348.28 294 348.551 293.069C348.756 292.126 348.354 290.999 347.452 290.655C346.444 290.27 345.366 290.966 344.55 291.675C343.734 292.385 342.795 293.188 341.725 293.036C342.275 292.538 342.687 291.905 342.919 291.201C343.152 290.496 343.198 289.743 343.053 289.015C343.007 288.714 342.88 288.43 342.684 288.196C342.123 287.597 341.11 287.855 340.438 288.327C338.306 289.827 337.712 292.721 337.699 295.328C337.486 294.389 337.666 293.409 337.658 292.458C337.65 291.507 337.388 290.409 336.576 289.909C336.073 289.638 335.507 289.504 334.936 289.519C333.977 289.483 332.911 289.581 332.255 290.282C331.435 291.151 331.652 292.614 332.361 293.561C333.071 294.508 334.145 295.118 335.137 295.783C335.932 296.255 336.61 296.901 337.121 297.672C337.181 297.779 337.231 297.892 337.269 298.008H343.275C344.621 297.323 345.867 296.458 346.981 295.438Z" fill="black"/>
<path d="M269.936 268.037C269.936 268.037 268.505 268.816 267.853 264.406C267.443 261.536 266.25 255.622 265.467 251.781L265.369 251.293C265.593 251.223 265.813 251.141 266.029 251.047C266.029 251.047 261.47 233.422 262.511 229.52C263.552 225.618 262.511 218.625 262.511 218.625L259.777 209.419C259.777 209.419 253.004 207.083 250.401 206.435C247.797 205.788 240.504 201.246 240.504 201.246C240.629 201.392 240.747 201.544 240.857 201.701L240.565 201.525C240.033 201.028 239.553 200.479 239.131 199.885C240.585 198.338 241.527 196.38 241.828 194.278C242.801 192.433 243.26 190.361 243.158 188.278C243.055 186.195 242.395 184.177 241.246 182.437C241.689 181.882 242.027 181.252 242.242 180.576C242.329 180.266 242.366 179.946 242.353 179.625C242.4 179.11 242.289 178.594 242.034 178.145C241.779 177.695 241.392 177.335 240.926 177.112C240.615 176.983 240.281 176.918 239.944 176.921C239.607 176.925 239.275 176.997 238.967 177.133C238.389 177.395 237.933 177.887 237.302 178.018C236.248 178.235 235.347 177.391 234.518 176.764C233.231 175.805 231.696 175.236 230.095 175.124C229.4 175.046 228.696 175.139 228.045 175.395C227.427 175.745 226.856 176.173 226.348 176.669C224.47 178.182 221.838 178.604 219.481 179.428C219.03 179.584 218.53 179.838 218.448 180.248C218.431 180.329 218.431 180.413 218.448 180.494C218.428 180.598 218.437 180.705 218.472 180.805C214.077 181.543 209.777 184.879 209.777 184.879L209.055 185.548C208.819 185.42 208.551 185.364 208.284 185.387C208.017 185.409 207.762 185.509 207.551 185.675L206.099 186.814C205.837 187.019 205.659 187.314 205.598 187.641C205.538 187.969 205.599 188.308 205.771 188.593L195.157 198.43L194.928 198.643V198.607C194.928 198.607 186.728 204.833 186.728 209.239C186.728 212.424 189.188 214.387 190.529 215.236C189.326 216.367 188.417 217.774 187.88 219.335V219.376V219.433V219.478V219.527V219.568V219.613V219.654V219.695V219.732V219.769V219.802V219.839V219.867V219.912V219.953V219.978V220.003V220.183V220.232V220.331V220.4V220.47L187.848 220.65V220.724L187.827 220.847V220.896V221.015V221.101L187.798 221.265L187.762 221.47V221.511L187.733 221.683V221.765L187.7 221.954V222.003L187.663 222.216V222.31L187.569 222.847L187.52 223.138V223.187L187.466 223.487V223.528L187.413 223.831V223.856L187.356 224.175V224.245L187.298 224.561V224.63L187.245 224.942V224.979L187.183 225.331V225.397L187.044 226.184L186.974 226.594V226.655L186.905 227.065V227.094L186.753 227.913V227.983L186.679 228.393V228.45L186.519 229.315V229.352L186.437 229.791V229.828L186.273 230.721V230.779L186.191 231.221V231.254L186.019 232.168V232.217L185.933 232.668V232.701L185.757 233.627V233.664L185.671 234.115V234.152L184.92 235.078V235.119L184.83 235.566V235.591L184.646 236.501V236.525L184.556 236.968V236.992L184.375 237.861V237.898L184.289 238.308V238.345L184.113 239.165V239.194L184.027 239.603V239.644L183.855 240.419V240.44L183.773 240.804V240.841C183.715 241.087 183.659 241.325 183.604 241.554L183.522 241.891V241.919C183.468 242.143 183.414 242.358 183.363 242.563L183.285 242.858V242.891L183.211 243.174C182.883 244.403 182.596 245.223 182.391 245.416C182.183 245.633 182.02 245.89 181.911 246.17L181.878 246.252L181.846 246.342L181.817 246.432L181.682 246.555L181.653 246.649L181.628 246.735L181.604 246.834V246.924L181.583 247.022V247.113C181.583 247.178 181.572 247.244 181.55 247.309V247.391V247.502V247.588V247.699V247.785V247.895V247.981V248.092V248.174C181.55 248.309 181.55 248.441 181.55 248.584C181.55 248.609 181.55 248.633 181.55 248.662C181.55 248.691 181.55 248.732 181.55 248.769C181.55 248.805 181.55 248.822 181.55 248.846C181.55 248.871 181.55 248.916 181.55 248.949C181.55 248.982 181.55 248.998 181.55 249.027C181.55 249.055 181.55 249.092 181.55 249.125V249.199C181.55 249.232 181.55 249.264 181.55 249.297V249.363C181.55 249.423 181.55 249.482 181.55 249.539V250.187V250.277V250.535L182.78 250.908C182.78 250.908 183.399 251.248 184.355 251.691C184.219 255.827 183.838 261.426 182.801 264.852C180.489 264.971 174.778 265.213 173.745 264.799C172.441 264.279 164.106 262.983 166.714 268.947C167.804 271.448 170.178 273.333 172.564 274.686C172.269 274.783 171.967 274.861 171.662 274.919C169.538 275.329 168.948 276.038 169.03 276.768C168.878 277.998 170.969 279.371 171.141 279.457C171.404 279.588 180.255 281.014 182.342 280.363C184.428 279.711 192.89 278.157 192.89 278.157C192.89 278.157 192.89 278.063 192.89 277.899C192.89 277.899 192.775 275.35 192.456 272.931C193.415 272.792 194.46 272.665 195.477 272.587C195.608 273.2 195.877 273.775 196.263 274.269C196.65 274.763 197.143 275.162 197.707 275.436C203.308 278.305 205.132 274.399 205.132 274.399C205.132 274.399 212.704 275.854 216.935 274.809C217.378 275.218 217.755 275.51 218.021 275.706C219.395 276.694 223.093 277.37 227.229 277.42C228.33 277.528 229.441 277.497 230.534 277.325C232.359 277.205 234.17 276.921 235.945 276.477C240.926 275.186 242.021 270.554 242.259 268.451C242.455 268.394 242.595 268.189 242.669 267.804C242.767 267.594 242.825 267.367 242.841 267.136C242.95 266.184 243.128 265.241 243.374 264.316L249.523 264.66C252.27 269.644 254.697 273.608 254.697 273.608L258.862 273.087C257.009 271.604 255.386 269.856 254.045 267.898C251.963 264.787 251.963 249.863 251.963 249.863L252.196 240.776V240.87V240.431C252.582 243.124 255.636 250.937 255.98 251.052C256.23 251.134 256.476 251.207 256.718 251.277L256.94 251.859C258.678 256.466 263.089 268.255 263.401 270.115C263.811 272.452 280.07 273.358 283.715 272.189C287.359 271.021 269.936 268.037 269.936 268.037ZM211.855 216.424L205.894 225.376C203.754 221.687 201.524 218.293 199.507 216.047C204.796 216.223 210.892 216.412 211.855 216.424ZM210.949 193.471C211.181 193.58 211.437 193.623 211.691 193.594C211.945 193.566 212.187 193.468 212.388 193.311L212.897 192.901C213.156 192.699 213.334 192.411 213.398 192.089C213.462 191.767 213.408 191.432 213.245 191.147L213.549 190.847C215.648 190.492 217.719 189.989 219.747 189.343C219.824 191.193 220.345 192.998 221.264 194.606C221.446 195.635 221.783 196.63 222.264 197.557C221.33 197.479 220.313 197.426 219.341 197.434C218.493 197.417 217.644 197.47 216.804 197.594C213.68 198.115 213.286 203.82 213.286 203.82C213.286 203.82 207.01 206.025 203.238 206.103C202.76 206.105 202.284 206.035 201.828 205.894L201.446 205.87L201.959 204.468C201.959 204.468 201.737 204.538 201.372 204.611C201.49 204.434 201.613 204.253 201.741 204.07C204.127 200.648 208.26 196.237 210.949 193.479V193.471ZM198.052 262.721C197.572 263.542 197.14 264.391 196.76 265.262C195.28 265.549 193.263 265.709 192.193 264.795C191.71 264.4 191.104 264.187 190.48 264.193L190.504 264.143C191.242 262.729 191.869 259.561 192.361 256.282C194.747 256.282 197.015 254.286 197.015 254.286L200.02 255.314L200.13 255.523L200.204 255.659L200.323 255.88L200.397 256.019L200.516 256.237L200.594 256.376L200.712 256.589L200.79 256.728L200.905 256.938L200.983 257.077L201.102 257.286L201.18 257.421L201.299 257.626L201.372 257.757L201.491 257.962L201.565 258.089L201.68 258.29L201.754 258.417L201.873 258.618L201.942 258.733L202.061 258.93L202.131 259.044L202.25 259.241L202.311 259.344L202.434 259.544L202.479 259.618C202.693 259.967 202.889 260.299 203.09 260.61L203.119 260.655L203.234 260.836L203.283 260.913L203.385 261.077L203.443 261.163L203.537 261.311L203.594 261.405L203.681 261.541L203.742 261.635L203.824 261.762L203.881 261.852L203.955 261.967L204.013 262.057L204.082 262.164L204.14 262.254L204.205 262.352L204.263 262.438C202.211 262.777 200.126 262.872 198.052 262.721Z" fill="url(#paint0_linear_11_22)"/>
<path d="M282.271 271.452C278.717 272.595 262.847 271.706 262.466 269.402C262.163 267.57 257.862 256.04 256.165 251.531L255.484 249.728L263.737 247.949C263.737 247.949 264.04 249.396 264.458 251.457C265.221 255.22 266.373 261.028 266.783 263.815C267.418 268.132 268.833 267.369 268.833 267.369C268.833 267.369 285.814 270.308 282.271 271.452Z" fill="#FFBDC6"/>
<path d="M237.437 196.549C237.437 196.549 236.802 200.357 242.263 203.927C247.723 207.497 243.025 220.302 243.025 220.302L238.987 220.527C236.423 220.671 233.902 219.815 231.956 218.14C230.009 216.464 228.788 214.099 228.549 211.543C228.549 211.543 230.833 207.854 226.643 198.34L237.437 196.549Z" fill="#FFBDC6"/>
<path d="M213.84 191.864C213.84 191.864 205.98 199.525 202.328 204.804C201.895 205.416 201.499 206.054 201.143 206.714C198.478 211.793 192.279 203.537 194.423 200.685L195.903 199.303L210.154 186.023C210.154 186.023 219.932 178.407 224.88 183.867C229.828 189.327 213.84 191.864 213.84 191.864Z" fill="#FFBDC6"/>
<path d="M231.296 201.32C237.606 201.32 242.722 196.206 242.722 189.896C242.722 183.587 237.606 178.473 231.296 178.473C224.986 178.473 219.87 183.587 219.87 189.896C219.87 196.206 224.986 201.32 231.296 201.32Z" fill="#A66477"/>
<path d="M184.769 264.213C184.769 264.213 176.262 264.721 174.991 264.213C173.72 263.705 165.599 262.438 168.153 268.279C170.707 274.12 180.341 276.53 180.341 276.53L187.31 274.751L184.769 264.213Z" fill="#7679B4"/>
<path opacity="0.05" d="M184.769 264.213C184.769 264.213 176.262 264.721 174.991 264.213C173.72 263.705 165.599 262.438 168.153 268.279C170.707 274.12 180.341 276.53 180.341 276.53L187.31 274.751L184.769 264.213Z" fill="black"/>
<path d="M215.11 239.21L232.186 246.145L241.898 266.771C241.898 266.771 242.025 274.005 235.679 275.657C229.332 277.309 220.444 276.547 218.157 274.895C215.869 273.243 206.477 263.471 206.477 263.471L215.11 239.21Z" fill="#7679B4"/>
<path opacity="0.05" d="M213.95 239.21L228.73 244.748L237.138 261.254C237.138 261.254 237.249 267.045 231.755 268.365C226.262 269.685 218.566 269.074 216.586 267.754C214.606 266.435 206.477 258.61 206.477 258.61L213.95 239.21Z" fill="black"/>
<path d="M199.241 264.213C199.241 264.213 194.797 265.738 193.021 264.213C191.246 262.688 188.069 264.594 188.069 264.594L189.471 272.845C189.471 272.845 195.817 271.448 199.249 271.829L199.241 264.213Z" fill="#FFBDC6"/>
<path opacity="0.05" d="M199.241 264.213C199.241 264.213 194.797 265.738 193.021 264.213C191.246 262.688 188.069 264.594 188.069 264.594L189.471 272.845C189.471 272.845 195.817 271.448 199.249 271.829L199.241 264.213Z" fill="black"/>
<path d="M201.77 255.331L197.716 253.933C197.716 253.933 193.271 257.868 190.336 254.568C187.401 251.269 193.001 237.558 193.001 237.558L198.966 227.909L203.283 241.493L207.219 248.092L201.77 255.331Z" fill="#565388"/>
<path opacity="0.05" d="M201.77 255.331L197.716 253.933C197.716 253.933 193.271 257.868 190.336 254.568C187.401 251.269 193.001 237.558 193.001 237.558L198.966 227.909L203.283 241.493L207.219 248.092L201.77 255.331Z" fill="black"/>
<path d="M240.5 254.568L249.642 255.835L251.421 264.213L240.123 263.578L240.5 254.568Z" fill="#565388"/>
<path opacity="0.05" d="M240.5 254.568L249.642 255.835L251.421 264.213L240.123 263.578L240.5 254.568Z" fill="black"/>
<path opacity="0.1" d="M227.68 208.62C227.68 208.62 231.489 223.216 243.669 212.682L246.969 254.568C246.969 254.568 242.906 261.04 242.271 266.865C241.635 272.689 230.591 248.83 223.99 248.715C217.39 248.6 210.851 239.386 210.851 239.386L218.28 224.089L227.68 208.62Z" fill="black"/>
<path d="M227.807 208.239C227.807 208.239 231.616 222.835 243.796 212.301L247.096 254.187C247.096 254.187 243.033 260.659 242.398 266.484C241.763 272.308 230.718 248.449 224.118 248.334C217.517 248.219 210.978 239.005 210.978 239.005L218.407 223.708L227.807 208.239Z" fill="#F2F1F2"/>
<path opacity="0.1" d="M225.774 198.844C225.774 198.844 220.444 197.955 217.394 198.463C214.344 198.971 213.967 204.554 213.967 204.554C213.967 204.554 205.333 207.599 202.414 206.603C202.414 206.603 188.065 205.587 188.065 209.903C188.065 214.219 192.64 216.223 192.64 216.223C192.64 216.223 212.56 216.896 212.7 216.859C217.271 215.588 212.573 216.859 212.573 216.859L204.32 229.299L211.937 239.833L220.063 233.869C220.063 233.869 221.08 228.282 223.753 225.491C225.655 223.495 228.143 214.51 229.41 209.538C229.677 208.491 229.732 207.401 229.574 206.333C229.415 205.264 229.046 204.237 228.488 203.312L225.774 198.844Z" fill="black"/>
<path opacity="0.1" d="M202.328 204.804C201.895 205.416 201.499 206.054 201.143 206.714C198.478 211.793 192.279 203.537 194.423 200.685L195.903 199.303C195.362 205.853 200.696 205.157 202.328 204.804Z" fill="black"/>
<path opacity="0.1" d="M212.573 216.363H212.429C212.429 216.363 217.144 215.092 212.573 216.363Z" fill="black"/>
<path d="M225.393 198.844C225.393 198.844 220.063 197.955 217.013 198.463C213.963 198.971 213.585 204.554 213.585 204.554C213.585 204.554 204.951 207.599 202.032 206.603L202.541 205.206C202.541 205.206 194.801 207.616 195.686 199.48C195.686 199.48 187.688 205.571 187.688 209.887C187.688 214.203 192.259 216.223 192.259 216.223C192.259 216.223 212.179 216.896 212.319 216.859C216.89 215.588 212.192 216.859 212.192 216.859L203.939 229.299L211.556 239.833L219.682 233.869C219.682 233.869 220.698 228.282 223.371 225.491C225.274 223.495 227.762 214.51 229.029 209.538C229.295 208.491 229.351 207.401 229.193 206.333C229.034 205.264 228.665 204.237 228.106 203.312L225.393 198.844Z" fill="#565388"/>
<path opacity="0.1" d="M251.548 240.099V240.796C251.494 240.567 251.494 240.328 251.548 240.099Z" fill="black"/>
<path opacity="0.1" d="M264.458 251.474C261.76 252.305 258.878 252.33 256.165 251.548L255.484 249.744L263.737 247.965C263.737 247.965 264.036 249.424 264.458 251.474Z" fill="black"/>
<path opacity="0.1" d="M239.741 202.017C239.741 202.017 246.85 206.46 249.392 207.095C251.934 207.731 258.534 210.014 258.534 210.014L261.199 219.031C261.199 219.031 262.216 225.884 261.199 229.688C260.182 233.492 250.663 240.731 251.171 239.587L250.917 249.613C250.917 249.613 250.917 264.209 252.967 267.238C255.017 270.267 249.093 264.254 249.093 264.254C249.093 264.254 241.918 253.654 241.033 246.928C240.147 240.202 241.537 214.33 241.537 214.33L240.266 212.551C240.266 212.551 242.914 205.698 239.741 202.017Z" fill="black"/>
<path d="M240.123 202.017C240.123 202.017 247.231 206.46 249.773 207.095C252.315 207.731 258.916 210.014 258.916 210.014L261.58 219.031C261.58 219.031 262.597 225.885 261.58 229.688C260.564 233.492 265.008 250.761 265.008 250.761C265.008 250.761 260.908 252.654 255.23 250.761C254.849 250.633 251.04 240.735 251.54 239.591L251.286 249.617C251.286 249.617 251.286 264.213 253.336 267.242C254.643 269.157 256.226 270.869 258.034 272.321L253.971 272.829C253.971 272.829 242.279 253.679 241.389 246.965C240.5 240.251 241.898 214.342 241.898 214.342L240.627 212.563C240.627 212.563 243.296 205.698 240.123 202.017Z" fill="#565388"/>
<path d="M205.46 262.951C205.46 262.951 196.953 250.654 197.334 244.916C197.334 244.916 196.318 252.785 195.178 253.294C194.038 253.802 182.608 250.244 182.608 250.244C182.608 250.244 182.1 246.555 183.371 245.293C184.642 244.03 188.577 220.54 188.577 220.54C188.577 220.54 189.975 214.195 196.067 213.813C202.16 213.432 215.873 244.403 215.873 244.403C215.873 244.403 217.902 262.951 205.46 262.951Z" fill="#7679B4"/>
<path d="M185.404 246.19C185.404 246.19 185.658 263.959 182.485 266.881C179.312 269.804 191.755 271.325 191.755 271.325C191.755 271.325 189.598 267.008 191.373 263.582C193.148 260.155 194.292 246.19 194.292 246.19H185.404Z" fill="#FFBDC6"/>
<path opacity="0.05" d="M186.035 266.64C186.035 266.64 184.765 263.467 181.337 266.004C181.337 266.004 178.291 273.112 172.957 274.128C167.624 275.145 172.195 278.19 172.449 278.317C172.703 278.444 181.337 279.842 183.367 279.207C185.396 278.571 193.649 277.051 193.649 277.051C193.649 277.051 193.267 268.673 192.009 268.033C190.75 267.394 191.369 271.833 186.035 266.64Z" fill="black"/>
<path d="M186.035 266.881C186.035 266.881 184.765 263.709 181.337 266.246C181.337 266.246 178.291 273.353 172.957 274.37C167.624 275.387 172.195 278.432 172.449 278.559C172.703 278.686 181.337 280.084 183.367 279.449C185.396 278.813 193.653 277.297 193.653 277.297C193.653 277.297 193.271 268.919 192.013 268.279C190.754 267.64 191.369 272.083 186.035 266.881Z" fill="#7679B4"/>
<path d="M209.941 187.122C211.013 188.787 212.167 190.397 213.401 191.946C213.519 192.083 213.607 192.243 213.661 192.416C213.715 192.588 213.734 192.77 213.716 192.95C213.698 193.13 213.644 193.305 213.556 193.463C213.469 193.622 213.351 193.761 213.208 193.872L212.712 194.262C212.57 194.373 212.408 194.454 212.234 194.501C212.06 194.548 211.879 194.559 211.7 194.534C211.522 194.509 211.351 194.449 211.196 194.356C211.042 194.264 210.908 194.141 210.802 193.995C209.691 192.456 208.3 191.139 206.702 190.114C206.52 190 206.367 189.844 206.258 189.659C206.148 189.474 206.084 189.266 206.072 189.051C206.06 188.837 206.1 188.622 206.188 188.426C206.276 188.23 206.41 188.058 206.579 187.925L207.993 186.81C208.139 186.695 208.307 186.612 208.486 186.565C208.665 186.519 208.852 186.51 209.035 186.539C209.218 186.568 209.393 186.635 209.549 186.735C209.705 186.836 209.838 186.967 209.941 187.122Z" fill="#565388"/>
<path opacity="0.1" d="M238.909 201.058C237.269 198.75 237.581 196.922 237.581 196.922L226.778 198.717C227.528 200.392 228.145 202.123 228.623 203.894C230.432 204.423 232.352 204.437 234.169 203.936C235.986 203.435 237.627 202.438 238.909 201.058Z" fill="black"/>
<path d="M231.362 203.919C236.97 203.919 241.516 199.373 241.516 193.766C241.516 188.159 236.97 183.613 231.362 183.613C225.753 183.613 221.207 188.159 221.207 193.766C221.207 199.373 225.753 203.919 231.362 203.919Z" fill="#FFBDC6"/>
<path opacity="0.1" d="M226.893 188.474C227.852 188.314 228.705 187.753 229.677 187.704C230.907 187.642 232.018 188.429 232.883 189.241C233.748 190.052 234.588 190.979 235.777 191.331C236.537 191.509 237.321 191.562 238.097 191.487C238.529 191.509 238.958 191.4 239.327 191.175C239.513 191.003 239.654 190.788 239.737 190.548C240.069 189.785 240.237 188.96 240.23 188.128C240.224 187.296 240.043 186.474 239.7 185.716C239.604 185.559 239.564 185.374 239.586 185.191C239.623 185.082 239.683 184.983 239.762 184.9C240.582 183.933 241.447 182.965 241.779 181.793C242.111 180.621 241.705 179.178 240.496 178.657C240.194 178.527 239.869 178.46 239.54 178.46C239.212 178.46 238.887 178.527 238.585 178.657C238.02 178.916 237.581 179.395 236.945 179.522C235.916 179.735 235.035 178.907 234.231 178.293C232.979 177.354 231.483 176.797 229.923 176.686C229.24 176.608 228.549 176.699 227.91 176.952C227.313 177.29 226.762 177.704 226.27 178.182C224.437 179.662 221.871 180.076 219.575 180.883C219.136 181.039 218.648 181.268 218.567 181.703C218.485 182.137 218.976 182.576 219.468 182.764C219.96 182.953 220.526 183.076 220.854 183.457C221.264 183.949 221.133 184.646 221.207 185.265C221.358 186.494 222.437 187.162 223.63 187.519C224.618 187.835 225.913 188.638 226.893 188.474Z" fill="black"/>
<path d="M226.893 188.22C227.852 188.06 228.705 187.499 229.677 187.449C230.907 187.388 232.018 188.175 232.883 188.986C233.748 189.798 234.588 190.724 235.777 191.077C236.537 191.255 237.321 191.308 238.097 191.233C238.529 191.254 238.958 191.146 239.327 190.921C239.513 190.749 239.654 190.533 239.737 190.294C240.069 189.531 240.237 188.706 240.23 187.874C240.224 187.042 240.043 186.22 239.7 185.461C239.604 185.304 239.564 185.12 239.586 184.937C239.623 184.828 239.683 184.729 239.762 184.646C240.582 183.678 241.447 182.711 241.779 181.539C242.111 180.367 241.705 178.924 240.496 178.403C240.194 178.273 239.869 178.206 239.54 178.206C239.212 178.206 238.887 178.273 238.585 178.403C238.019 178.661 237.581 179.141 236.945 179.268C235.916 179.481 235.035 178.653 234.231 178.038C232.992 177.122 231.518 176.576 229.98 176.464C229.297 176.386 228.606 176.478 227.967 176.731C227.37 177.069 226.819 177.482 226.327 177.961C224.495 179.44 221.928 179.854 219.632 180.662C219.194 180.817 218.706 181.047 218.624 181.481C218.542 181.916 219.034 182.355 219.526 182.543C220.018 182.732 220.584 182.855 220.912 183.236C221.321 183.728 221.19 184.424 221.264 185.043C221.416 186.273 222.494 186.941 223.687 187.298C224.618 187.581 225.913 188.384 226.893 188.22Z" fill="#A66477"/>
<path opacity="0.05" d="M218.698 237.062C218.698 237.062 225.95 238.292 227.762 242.206C229.574 246.121 240.471 256.712 240.471 256.712" fill="black"/>
<g opacity="0.05">
<path opacity="0.05" d="M195.432 252.408C194.288 252.917 182.862 249.363 182.862 249.363C182.722 248.258 182.734 247.14 182.899 246.039C182.243 247.621 182.608 250.252 182.608 250.252C182.608 250.252 194.034 253.806 195.178 253.298C195.555 253.13 195.92 252.154 196.24 250.92C195.985 251.711 195.715 252.294 195.432 252.408Z" fill="black"/>
<path opacity="0.05" d="M188.815 219.761C188.721 220.019 188.642 220.281 188.577 220.548C188.577 220.548 185.822 236.997 184.178 243.092C185.699 238.144 188.569 221.224 188.815 219.761Z" fill="black"/>
<path opacity="0.05" d="M205.714 262.057C205.714 262.057 197.207 249.76 197.588 244.022C197.588 244.022 197.498 244.735 197.338 245.744C197.724 251.744 205.46 262.951 205.46 262.951C211.376 262.951 214.02 258.762 215.164 254.363C213.901 258.413 211.232 262.057 205.714 262.057Z" fill="black"/>
</g>
<path d="M183.801 250.617C183.801 250.617 191.558 254.888 194.354 252.855C197.15 250.822 195.371 247.649 195.371 247.649L193.21 244.096H185.974L183.563 248.285L183.801 250.617Z" fill="#7679B4"/>
<path d="M236.695 267.39C236.695 267.39 237.204 257.237 224.253 257.364C211.302 257.491 223.744 257.364 223.744 257.364C223.744 257.364 218.665 255.839 212.319 259.413C205.972 262.987 198.732 262.205 198.732 262.205C198.732 262.205 192.89 271.853 198.351 274.645C203.812 277.436 205.587 273.608 205.587 273.608C205.587 273.608 216.759 275.764 219.3 272.845C221.115 274.643 223.418 275.868 225.923 276.368C228.428 276.868 231.025 276.621 233.391 275.657C233.391 275.657 239.741 272.845 236.695 267.39Z" fill="#7679B4"/>
</g>
<defs>
<linearGradient id="paint0_linear_11_22" x1="225.204" y1="280.527" x2="225.204" y2="175.116" gradientUnits="userSpaceOnUse">
<stop stop-color="#808080" stop-opacity="0.25"/>
<stop offset="0.54" stop-color="#808080" stop-opacity="0.12"/>
<stop offset="1" stop-color="#808080" stop-opacity="0.1"/>
</linearGradient>
<clipPath id="clip0_11_22">
<rect width="406" height="298" fill="white"/>
</clipPath>
</defs>
</svg>
