<svg width="428" height="268" viewBox="0 0 428 268" fill="none" xmlns="http://www.w3.org/2000/svg">
<g clip-path="url(#clip0_225_2)">
<path opacity="0.1" d="M160.268 268.003C242.88 268.003 309.851 208.009 309.851 134.002C309.851 59.9946 242.88 0 160.268 0C77.6562 0 10.6859 59.9946 10.6859 134.002C10.6859 208.009 77.6562 268.003 160.268 268.003Z" fill="black"/>
<path opacity="0.1" d="M71.663 252.009C83.5107 252.009 93.1152 250.018 93.1152 247.561C93.1152 245.104 83.5107 243.113 71.663 243.113C59.8152 243.113 50.2107 245.104 50.2107 247.561C50.2107 250.018 59.8152 252.009 71.663 252.009Z" fill="black"/>
<path opacity="0.1" d="M218.247 234.895C230.095 234.895 239.699 232.904 239.699 230.447C239.699 227.991 230.095 225.999 218.247 225.999C206.399 225.999 196.795 227.991 196.795 230.447C196.795 232.904 206.399 234.895 218.247 234.895Z" fill="black"/>
<path opacity="0.1" d="M145.454 231.162C164.72 231.162 180.338 228.506 180.338 225.23C180.338 221.953 164.72 219.298 145.454 219.298C126.187 219.298 110.569 221.953 110.569 225.23C110.569 228.506 126.187 231.162 145.454 231.162Z" fill="black"/>
<path opacity="0.1" d="M248.242 207.305C288.427 207.305 321.003 202.183 321.003 195.865C321.003 189.548 288.427 184.426 248.242 184.426C208.057 184.426 175.48 189.548 175.48 195.865C175.48 202.183 208.057 207.305 248.242 207.305Z" fill="black"/>
<path d="M5.08079 175.9C3.44635 179.091 2.68298 182.66 2.86828 186.244C3.05358 189.828 4.18095 193.298 6.13576 196.303C6.77709 197.269 7.3671 197.964 7.83848 198.147C10.0991 199.039 14.6269 201.231 14.6269 201.231L25.5294 196.931C25.5294 196.931 27.2995 187.532 28.9733 179.463C30.1149 173.959 31.2179 169.076 31.6701 168.22C32.7988 166.112 31.6701 143.159 31.6701 143.159C31.6701 143.159 20.7676 142.425 17.7694 150.861L16.4579 153.436L5.08079 175.9Z" fill="#A8A8A8"/>
<path opacity="0.1" d="M19.5555 178.436C26.1835 186.061 28.9797 179.466 28.9797 179.466C30.1213 173.962 31.2243 169.079 31.6765 168.223C32.8052 166.115 31.6765 143.162 31.6765 143.162C31.6765 143.162 20.774 142.428 17.7758 150.864L16.4643 153.439C15.6241 160.189 14.7936 172.948 19.5555 178.436Z" fill="white"/>
<path d="M21.0112 199.689L59.4907 195.228L66.356 149.883L61.1645 138.105C58.9712 133.09 55.934 128.491 52.186 124.51C49.5726 121.745 46.4141 119.086 43.092 117.75C42.638 117.567 42.1745 117.408 41.7035 117.274C41.1621 117.109 40.5895 117.074 40.0323 117.173C39.4751 117.272 38.949 117.502 38.4969 117.844C33.7511 121.22 32.0548 135.576 31.5065 142.486C31.2809 145.326 30.8987 148.151 30.3617 150.948L21.0112 199.689Z" fill="#A8A8A8"/>
<path opacity="0.1" d="M46.6289 149.394L38.6123 169.189C42.813 166.105 49.0371 149.313 49.0371 149.313L54.6134 168.458L50.169 148.28C50.8196 143.898 51.0088 139.46 50.7334 135.038C50.3806 129.972 45.6445 121.841 43.0727 117.747C42.6188 117.563 42.1553 117.404 41.6843 117.271C41.1428 117.106 40.5702 117.071 40.013 117.17C39.4558 117.269 38.9298 117.499 38.4777 117.84C40.4978 121.912 45.5483 132.093 47.0874 135.118C49.0403 138.929 46.6289 149.394 46.6289 149.394Z" fill="white"/>
<path d="M53.1736 201.231H74.0519C74.9107 201.231 75.7606 201.056 76.5499 200.716C77.3392 200.376 78.0514 199.879 78.6431 199.254C79.2349 198.63 79.6939 197.891 79.9923 197.082C80.2906 196.274 80.422 195.413 80.3785 194.552C79.9168 185.565 78.7464 169.543 75.963 159.372C74.4591 153.884 72.7115 151.003 71.1082 149.583C70.3564 148.855 69.3857 148.397 68.3473 148.28C67.5597 148.212 66.7714 148.404 66.1027 148.827C62.2259 152.558 57.6981 172.188 57.6981 172.188L53.1736 201.231Z" fill="#A8A8A8"/>
<path opacity="0.1" d="M72.4486 183.821C73.3079 186.212 73.6478 188.971 72.4486 191.658L67.7957 193.966C67.7957 193.966 55.2899 188.646 56.8099 177.741C56.8099 177.741 57.2203 175.488 61.5268 175.661C63.9488 175.779 66.281 176.618 68.2261 178.071C70.1713 179.524 71.6412 181.526 72.4486 183.821V183.821Z" fill="white"/>
<path opacity="0.1" d="M67.4783 155.155C67.334 151.331 69.4022 150.005 71.1114 149.583C70.3595 148.855 69.3888 148.397 68.3505 148.28C67.1608 149.279 66.3177 150.631 65.9423 152.142L61.5813 173.479C61.5813 173.479 67.722 161.563 67.4783 155.155Z" fill="white"/>
<path d="M47.6806 172.028L58.0188 186.222L59.8113 197.938L53.1672 201.231L43.589 203.355C42.6665 203.561 41.718 203.623 40.7768 203.539L14.6396 201.231L18.1958 192.956L30.4771 175.649L47.6806 172.028Z" fill="#A8A8A8"/>
<path opacity="0.1" d="M43.6788 167.154C43.6788 167.154 50.7334 167.64 48.0847 179.807C45.436 191.974 18.183 192.949 18.183 192.949C18.183 192.949 23.9741 182.649 32.8821 175.269C33.8826 174.442 34.8478 173.579 35.7681 172.658C37.8171 170.602 41.7356 166.987 43.6788 167.154Z" fill="white"/>
<path opacity="0.1" d="M50.0247 176.328C50.0247 176.328 59.5836 185.06 58.6825 198.498Z" fill="black"/>
<path opacity="0.1" d="M66.1059 148.827C66.1059 148.827 56.0756 162.217 54.9501 182.82Z" fill="black"/>
<path opacity="0.1" d="M31.6797 143.152C31.6797 143.152 36.5345 165.281 24.4135 181.96Z" fill="black"/>
<g opacity="0.1">
<path opacity="0.1" d="M83.4055 86.8699C83.4055 86.9665 83.4055 87.0631 83.4247 87.1564C83.5241 86.2133 84.0179 85.3282 84.1943 84.3851C84.2624 84.0072 84.2829 83.6222 84.2552 83.2392C84.2552 83.4066 84.2232 83.5611 84.1943 83.7413C83.9923 84.8035 83.3926 85.7885 83.4055 86.8699Z" fill="black"/>
<path opacity="0.1" d="M65.6826 79.4122C65.7203 78.7609 65.6477 78.1078 65.4677 77.4809C65.2779 76.9925 65.1226 76.4913 65.0028 75.981C65.0028 76.0486 64.9771 76.113 64.9739 76.1806C64.9386 76.8533 65.2721 77.4681 65.4677 78.1118C65.5916 78.5349 65.6638 78.9716 65.6826 79.4122V79.4122Z" fill="black"/>
<path opacity="0.1" d="M84.6786 91.5564C84.6562 91.844 84.5667 92.1224 84.4174 92.3689C84.2682 92.6155 84.0632 92.8234 83.8192 92.9758C83.1779 93.3267 82.4051 93.1593 81.7028 92.9758C80.4648 92.6825 79.2553 92.2785 78.089 91.7688C76.3189 90.9481 74.6643 89.6638 72.7179 89.5576C72.1894 89.5105 71.6582 89.6096 71.1819 89.844C70.9463 89.9639 70.7428 90.1387 70.5882 90.3537C70.4337 90.5688 70.3327 90.8178 70.2937 91.08C70.2712 91.2828 70.2937 91.492 70.2552 91.6916C70.1301 92.2774 69.4439 92.596 68.8507 92.5252C68.2612 92.4055 67.7104 92.1412 67.2474 91.7559L64.3967 89.7475C64.2909 89.8923 64.1851 90.0339 64.076 90.1659L67.2474 92.3997C67.7104 92.7849 68.2612 93.0492 68.8507 93.169C69.4439 93.2398 70.1334 92.9211 70.2552 92.3353C70.2969 92.1358 70.2552 91.9265 70.2937 91.7238C70.3327 91.4615 70.4337 91.2125 70.5882 90.9975C70.7428 90.7824 70.9463 90.6077 71.1819 90.4878C71.6582 90.2533 72.1894 90.1542 72.7179 90.2013C74.6643 90.3075 76.3189 91.5918 78.089 92.4126C79.2553 92.9223 80.4648 93.3262 81.7028 93.6196C82.4051 93.8031 83.1843 93.9704 83.8192 93.6196C84.4541 93.2687 84.7459 92.4544 84.6978 91.7173C84.6946 91.6626 84.685 91.6111 84.6786 91.5564Z" fill="black"/>
<path opacity="0.1" d="M65.2337 86.6575C65.2732 86.7869 65.3021 86.9193 65.3202 87.0534C65.3699 86.7047 65.3403 86.3493 65.2337 86.0138C65.1375 85.7176 64.9771 85.4473 64.8713 85.1511C64.7942 84.9362 64.7446 84.7123 64.7238 84.4849C64.6764 84.9271 64.7268 85.3744 64.8713 85.7949C64.9771 86.091 65.1375 86.3646 65.2337 86.6575Z" fill="black"/>
</g>
<path opacity="0.06" d="M68.9982 208.792C68.9762 208.883 68.9243 208.965 68.8507 209.023C68.7727 209.064 68.6852 209.083 68.5974 209.078C67.4558 209.104 66.3143 209.078 65.1759 209.159C64.0985 209.252 63.0179 209.481 61.9436 209.358C61.6 209.37 61.2611 209.275 60.9738 209.085C60.6865 208.896 60.4652 208.621 60.3403 208.299C60.2726 208.159 60.2126 208.015 60.1608 207.868H60.5712C61.9212 207.868 63.2744 207.82 64.6244 207.82C65.0316 207.82 65.4421 207.8 65.8461 207.752C66.2501 207.704 66.5804 207.636 66.9492 207.591C67.5012 207.538 68.0557 207.515 68.6102 207.524H69.0655C69.1489 207.945 69.1258 208.381 68.9982 208.792Z" fill="black"/>
<path opacity="0.1" d="M90.6686 120.628C90.4304 120.541 90.1693 120.541 89.9311 120.628L87.7602 121.272C86.9995 121.475 86.258 121.746 85.5444 122.079C85.2329 122.233 84.9375 122.417 84.6626 122.63C84.6865 122.535 84.7187 122.442 84.7588 122.353C85.2879 121.175 86.8559 121.014 87.9462 120.328C88.549 119.952 89.9182 118.738 90.4249 119.846C90.5352 120.096 90.6169 120.359 90.6686 120.628V120.628Z" fill="black"/>
<path d="M69.4664 82.6019C69.1457 82.4957 68.8251 82.3831 68.5044 82.2801L69.1714 82.3316C69.2825 82.4065 69.382 82.4976 69.4664 82.6019Z" fill="#FBBEBE"/>
<path opacity="0.1" d="M80.5164 94.8524C80.6671 94.8524 80.6126 94.8524 80.5389 94.8781C80.4651 94.9038 80.3433 94.9038 80.5164 94.8524Z" fill="black"/>
<path opacity="0.1" d="M75.3505 144.369C75.8978 144.362 76.4371 144.502 76.9121 144.775C77.1479 144.914 77.3434 145.112 77.4795 145.351C77.6156 145.589 77.6875 145.858 77.6881 146.133C77.6529 146.741 77.1879 147.224 76.8512 147.742C76.6428 148.058 76.4768 148.4 76.3574 148.759C76.3206 148.841 76.3116 148.933 76.3317 149.02C76.3702 149.142 76.5017 149.204 76.6139 149.258C77.0219 149.444 77.3703 149.739 77.6201 150.112C77.8699 150.485 78.0112 150.921 78.028 151.37C77.9992 152.625 76.7775 153.642 76.8448 154.91C76.8754 155.174 76.9203 155.437 76.9795 155.696C77.1262 156.777 76.9765 157.877 76.5466 158.879C76.1586 159.89 75.6295 160.839 75.2126 161.84C74.0871 164.56 73.8434 167.573 73.93 170.531C73.9973 172.539 73.2887 174.451 72.6473 176.363C73.0097 172.512 73.1062 168.64 72.9359 164.776C72.891 163.726 72.7596 162.735 72.8077 161.683C72.8846 160.012 73.8145 158.493 74.0518 156.854C74.1865 155.918 74.0967 154.965 74.1192 154.019C74.1641 152.088 74.6867 150.182 74.722 148.244C74.7669 146.876 74.6419 145.467 75.3505 144.369Z" fill="black"/>
<path opacity="0.1" d="M57.4736 117.654C57.1081 117.889 56.5661 117.811 56.114 117.708C54.3311 117.309 52.3623 117.023 50.7365 117.789C50.7339 117.5 50.8046 117.216 50.9417 116.962C51.1758 116.569 51.6761 116.489 52.0865 116.379C53.4641 116.022 54.894 115.913 56.3096 116.057C56.434 116.051 56.5569 116.086 56.6598 116.156C56.7628 116.227 56.8402 116.328 56.8804 116.447C57.0952 116.83 57.2812 117.242 57.4736 117.654Z" fill="black"/>
<path d="M71.663 97.5014C71.9924 97.5014 72.2594 97.2333 72.2594 96.9027C72.2594 96.572 71.9924 96.304 71.663 96.304C71.3336 96.304 71.0665 96.572 71.0665 96.9027C71.0665 97.2333 71.3336 97.5014 71.663 97.5014Z" fill="white"/>
<path d="M81.7285 97.2181C82.0579 97.2181 82.3249 96.9501 82.3249 96.6194C82.3249 96.2888 82.0579 96.0208 81.7285 96.0208C81.3991 96.0208 81.1321 96.2888 81.1321 96.6194C81.1321 96.9501 81.3991 97.2181 81.7285 97.2181Z" fill="white"/>
<path opacity="0.1" d="M71.6629 66.6467L70.3802 64.2166C70.4616 64.1194 70.5506 64.029 70.6464 63.9462C70.8316 63.8317 71.0485 63.7798 71.2653 63.7982L71.6629 66.6467Z" fill="black"/>
<path opacity="0.1" d="M75.1998 63.6855L73.7472 65.8421L72.9199 63.4763C73.273 63.3241 73.655 63.2516 74.039 63.2639C74.4467 63.3385 74.839 63.4811 75.1998 63.6855V63.6855Z" fill="black"/>
<g opacity="0.1">
<path opacity="0.1" d="M69.6845 91.2635C69.5109 91.4722 69.2913 91.6374 69.0432 91.7463C67.906 92.2924 66.6089 92.4012 65.3972 92.0521C65.2564 92.2241 65.1043 92.3864 64.9419 92.5381C65.5989 92.7981 66.3022 92.9191 67.0079 92.8936C67.7136 92.8682 68.4065 92.6967 69.0432 92.3901C69.2913 92.2812 69.5109 92.1159 69.6845 91.9073C69.7948 91.7466 69.8701 91.5643 69.9055 91.3724C69.9408 91.1805 69.9355 90.9833 69.8897 90.7936C69.8577 90.9638 69.7875 91.1245 69.6845 91.2635Z" fill="black"/>
<path opacity="0.1" d="M66.2053 80.484C66.31 80.9058 66.3712 81.3372 66.388 81.7715C66.425 81.1222 66.3634 80.471 66.2053 79.8403C66.0097 79.0742 65.6698 78.3339 65.6088 77.5453C65.6088 77.4455 65.6088 77.3458 65.5928 77.2428C65.5774 77.5582 65.5828 77.8743 65.6088 78.1891C65.6698 78.9777 66.0097 79.718 66.2053 80.484Z" fill="black"/>
<path opacity="0.1" d="M82.8028 84.6941C82.9389 83.8429 82.9969 82.9809 82.9759 82.1191C82.9647 82.7662 82.9068 83.4116 82.8028 84.0503C82.6392 85.016 82.3538 85.9816 82.2256 86.9665C82.1594 87.4948 82.1348 88.0276 82.1518 88.5598C82.1606 88.2422 82.1852 87.9253 82.2256 87.6102C82.3538 86.6253 82.6392 85.6694 82.8028 84.6941Z" fill="black"/>
<path opacity="0.1" d="M66.1411 86.0749C65.9732 85.758 65.8378 85.4248 65.7371 85.0804C65.7099 85.1963 65.697 85.3152 65.6986 85.4344C65.759 85.8889 65.9095 86.3267 66.1411 86.7219C66.3766 87.2615 66.5124 87.8395 66.542 88.4278C66.6 87.6225 66.4625 86.8151 66.1411 86.0749V86.0749Z" fill="black"/>
<path opacity="0.1" d="M79.888 82.9496C79.9161 83.0964 79.9365 83.2447 79.9489 83.3937C79.9489 83.3454 79.9489 83.3004 79.9489 83.2521C79.9638 82.935 79.9401 82.6172 79.8784 82.3058C79.8078 81.9679 79.6924 81.6331 79.6379 81.2919C79.622 81.3682 79.6123 81.4458 79.609 81.5237C79.6434 82.0086 79.7371 82.4875 79.888 82.9496V82.9496Z" fill="black"/>
<path opacity="0.1" d="M77.8677 91.6079C77.8184 91.5562 77.7723 91.5013 77.7298 91.4438C77.6509 91.5727 77.6181 91.7249 77.6368 91.8751C77.6769 92.0199 77.757 92.1505 77.8677 92.2517C78.5254 92.9606 79.3325 93.5132 80.2301 93.869C81.1277 94.2249 82.0932 94.375 83.056 94.3084C83.0015 94.096 82.947 93.8868 82.8957 93.6647C81.9592 93.7079 81.0246 93.5463 80.1564 93.1912C79.2883 92.8361 78.5074 92.2959 77.8677 91.6079V91.6079Z" fill="black"/>
<path opacity="0.1" d="M80.6415 78.3178C80.6399 78.3061 80.6399 78.2942 80.6415 78.2824C80.8242 77.0979 79.8462 76.0679 78.8618 75.3856C78.1111 74.863 77.2963 74.44 76.4376 74.1271C75.9101 73.9374 75.3641 73.8047 74.8086 73.7311C73.7731 73.5907 72.719 73.709 71.7399 74.0756C71.3346 74.229 70.9509 74.4346 70.5983 74.6871C70.3883 74.8204 70.2134 75.0026 70.0885 75.2182C69.9857 75.4609 69.9396 75.7241 69.9538 75.9875C69.9538 76.2096 69.9538 76.4316 69.9538 76.657V76.6312C69.9396 76.3678 69.9857 76.1047 70.0885 75.8619C70.2134 75.6463 70.3883 75.4642 70.5983 75.3308C70.9509 75.0783 71.3346 74.8728 71.7399 74.7193C72.719 74.3528 73.7731 74.2345 74.8086 74.3749C75.3641 74.4484 75.9101 74.5812 76.4376 74.7708C77.2963 75.0837 78.1111 75.5067 78.8618 76.0293C79.6795 76.5829 80.4843 77.3812 80.6415 78.3178Z" fill="black"/>
<path opacity="0.1" d="M69.4632 79.8596C69.1426 80.4744 68.5974 80.9733 68.3313 81.6235C68.2224 81.894 68.1543 82.1793 68.1293 82.47C68.0972 82.7715 68.0811 83.0745 68.0812 83.3777C68.0812 83.6513 68.0812 83.9281 68.0812 84.2049C68.0812 84.1437 68.0812 84.0826 68.0812 84.0214C68.0811 83.7182 68.0972 83.4152 68.1293 83.1137C68.1543 82.823 68.2224 82.5377 68.3313 82.2672C68.5974 81.6235 69.1297 81.1181 69.4632 80.5033C69.9795 79.5377 69.9699 78.4273 69.9603 77.3232C70.0028 78.1967 69.8322 79.0674 69.4632 79.8596V79.8596Z" fill="black"/>
</g>
<path d="M212.963 164.502C212.963 164.502 205.523 174.329 199.351 174.409C193.178 174.49 189.554 178.549 192.485 181.085C195.416 183.621 227.354 179.637 227.354 179.637C227.354 179.637 227.655 167.56 224.888 165.796C222.121 164.032 212.963 164.502 212.963 164.502Z" fill="#444176"/>
<path d="M292.952 176.299C292.952 176.299 294.09 184.082 290.572 189.389C287.055 194.697 296.928 196.744 296.928 196.744C296.928 196.744 304.101 198.749 304.624 191.636C305.146 184.523 304.976 179.083 304.303 178.504C303.63 177.924 303.069 173.923 303.069 173.923L292.952 176.299Z" fill="#444176"/>
<path d="M180.335 190.999C180.335 190.999 180.076 165.825 204.892 155.593L210.654 144.588L213.418 137.829C214.419 135.381 215.994 133.211 218.008 131.504C220.023 129.797 222.418 128.604 224.991 128.024L229.461 127.017L230.843 121.172C231.579 118.047 233.211 115.208 235.536 113.003C237.862 110.799 240.779 109.326 243.929 108.767C246.647 108.26 249.405 108.002 252.17 107.994C253.393 108.013 254.591 108.349 255.647 108.969C256.702 109.589 257.58 110.473 258.195 111.535V111.535C258.195 111.535 281.706 111.274 282.748 124.123C282.748 124.123 285.102 135.92 288.498 138.019C288.498 138.019 294.244 136.709 299.99 145.1L306.259 166.601C306.259 166.601 322.716 182.07 317.752 196.213C317.752 196.213 310.96 205.914 276.479 199.358C276.479 199.358 239.648 210.623 220.043 195.173C220.04 195.193 187.39 201.485 180.335 190.999Z" fill="#A8A8A8"/>
<path opacity="0.1" d="M196.792 187.065C196.792 187.065 202.018 179.723 201.755 174.477C201.493 169.23 202.987 156.452 202.987 156.452" stroke="black" stroke-miterlimit="10"/>
<path opacity="0.1" d="M215.861 167.399C215.861 167.399 221.085 157.698 220.562 152.455C220.562 152.455 226.049 142.476 230.227 143.275" stroke="black" stroke-miterlimit="10"/>
<path opacity="0.1" d="M244.596 139.866C244.596 139.866 258.961 134.623 259.747 130.429" stroke="black" stroke-miterlimit="10"/>
<path opacity="0.1" d="M249.819 151.93C249.819 151.93 264.971 145.113 264.971 143.275H272.542C272.542 143.275 283.515 157.698 282.21 163.99" stroke="black" stroke-miterlimit="10"/>
<path opacity="0.1" d="M267.584 162.416C267.584 162.416 252.955 161.367 247.729 165.564C242.502 169.762 233.1 171.857 233.1 171.857C233.1 171.857 227.614 183.657 225.523 185.752C223.432 187.848 220.036 195.193 220.036 195.193" stroke="black" stroke-miterlimit="10"/>
<path opacity="0.1" d="M267.584 176.315C267.584 176.315 269.149 181.819 271.24 184.967C273.33 188.115 276.463 199.387 276.463 199.387" stroke="black" stroke-miterlimit="10"/>
<path opacity="0.1" d="M292.137 192.309C292.137 192.309 295.453 201.569 298.368 201.659" stroke="black" stroke-miterlimit="10"/>
<path opacity="0.1" d="M270.419 152.561C270.419 152.561 279.032 154.897 282.633 160.559C286.234 166.221 297.233 171.355 297.233 171.355" stroke="black" stroke-miterlimit="10"/>
<path opacity="0.1" d="M274.113 124.667C274.113 124.667 274.113 136.728 277.509 136.728C280.904 136.728 288.482 138.038 288.482 138.038" stroke="black" stroke-miterlimit="10"/>
<path opacity="0.1" d="M257.47 110.344C257.47 110.344 256.601 131.179 252.16 136.573" stroke="black" stroke-miterlimit="10"/>
<g opacity="0.05">
<path opacity="0.05" d="M305.721 166.35L299.452 144.849C293.705 136.458 287.959 137.768 287.959 137.768C284.563 135.669 282.213 123.869 282.213 123.869C281.168 111.02 257.657 111.284 257.657 111.284C257.041 110.22 256.161 109.335 255.102 108.715C254.044 108.094 252.844 107.76 251.619 107.743C250.509 107.743 249.374 107.779 248.239 107.872C248.88 107.936 249.495 108.028 250.083 108.146L251.91 111.294C251.91 111.294 275.418 111.03 276.463 123.879C276.463 123.879 278.817 135.679 282.213 137.777C282.213 137.777 287.959 136.464 293.705 144.858L299.974 166.359C299.974 166.359 316.431 181.829 311.467 195.972C311.467 195.972 308.116 200.758 294.177 201.337C312.971 202.029 317.213 195.972 317.213 195.972C322.177 181.819 305.721 166.35 305.721 166.35Z" fill="black"/>
<path opacity="0.05" d="M213.771 194.929C208.241 195.927 202.649 196.542 197.035 196.767C203.58 197.018 210.388 196.306 214.774 195.701C214.435 195.44 214.101 195.189 213.771 194.929Z" fill="black"/>
<path opacity="0.05" d="M270.194 199.126C262.152 201.39 253.875 202.703 245.529 203.04C257.57 203.478 268.976 200.957 273.677 199.747C272.542 199.557 271.39 199.342 270.194 199.126Z" fill="black"/>
</g>
<path d="M61.4595 240.023C61.4595 240.023 68.6455 239.801 70.81 238.253C72.9744 236.704 81.86 234.857 82.3987 237.338C82.9374 239.82 93.1954 249.682 85.0826 249.75C76.9699 249.817 66.2373 248.482 64.0761 247.159C61.9148 245.836 61.4595 240.023 61.4595 240.023Z" fill="#A8A8A8"/>
<path opacity="0.2" d="M85.2301 248.884C77.1174 248.952 66.3816 247.616 64.2204 246.309C62.5754 245.302 61.918 241.69 61.7 240.026H61.4595C61.4595 240.026 61.9148 245.842 64.0761 247.162C66.2373 248.482 76.9731 249.817 85.0826 249.753C87.4267 249.734 88.2347 248.897 88.1898 247.658C87.866 248.404 86.9713 248.871 85.2301 248.884Z" fill="black"/>
<path d="M236.65 221.934C236.65 221.934 228.188 220.234 225.933 217.968C223.679 215.702 213.524 211.743 212.395 214.573C211.266 217.402 197.167 227.029 206.755 228.735C216.342 230.441 229.316 230.988 232.138 229.868C234.96 228.748 236.65 221.934 236.65 221.934Z" fill="#A8A8A8"/>
<path opacity="0.2" d="M206.755 227.666C216.346 229.363 229.316 229.919 232.138 228.796C234.283 227.933 235.778 223.791 236.368 221.863L236.65 221.924C236.65 221.924 234.957 228.716 232.138 229.849C229.32 230.982 216.346 230.415 206.755 228.716C203.987 228.226 203.195 227.074 203.493 225.619C203.731 226.578 204.696 227.309 206.755 227.666Z" fill="black"/>
<path opacity="0.1" d="M155.622 36.967H153.608C153.982 36.967 154.341 36.8178 154.606 36.5522C154.87 36.2866 155.019 35.9263 155.019 35.5507C155.019 35.1751 154.87 34.8149 154.606 34.5493C154.341 34.2837 153.982 34.1345 153.608 34.1345H137.293C136.919 34.1345 136.56 34.2837 136.295 34.5493C136.031 34.8149 135.882 35.1751 135.882 35.5507C135.882 35.9263 136.031 36.2866 136.295 36.5522C136.56 36.8178 136.919 36.967 137.293 36.967H139.307C138.944 36.9843 138.603 37.1409 138.353 37.4043C138.102 37.6677 137.963 38.0177 137.963 38.3816C137.963 38.7455 138.102 39.0955 138.353 39.3589C138.603 39.6223 138.944 39.7789 139.307 39.7962H136.488C136.114 39.7962 135.755 39.9454 135.49 40.211C135.226 40.4766 135.077 40.8368 135.077 41.2125C135.077 41.5881 135.226 41.9483 135.49 42.2139C135.755 42.4795 136.114 42.6287 136.488 42.6287H152.803C153.177 42.6287 153.536 42.4795 153.801 42.2139C154.065 41.9483 154.214 41.5881 154.214 41.2125C154.214 40.8368 154.065 40.4766 153.801 40.211C153.536 39.9454 153.177 39.7962 152.803 39.7962H155.622C155.813 39.8054 156.003 39.7755 156.182 39.7086C156.361 39.6416 156.524 39.5389 156.663 39.4066C156.801 39.2743 156.911 39.1153 156.986 38.9391C157.061 38.7629 157.1 38.5733 157.1 38.3816C157.1 38.1899 157.061 38.0003 156.986 37.8241C156.911 37.6479 156.801 37.4888 156.663 37.3566C156.524 37.2243 156.361 37.1216 156.182 37.0546C156.003 36.9877 155.813 36.9578 155.622 36.967V36.967Z" fill="black"/>
<path opacity="0.1" d="M218.991 86.7959H216.977C217.339 86.7786 217.681 86.622 217.931 86.3586C218.181 86.0952 218.321 85.7452 218.321 85.3813C218.321 85.0174 218.181 84.6674 217.931 84.404C217.681 84.1406 217.339 83.984 216.977 83.9667H200.646C200.455 83.9575 200.265 83.9874 200.086 84.0543C199.907 84.1213 199.743 84.224 199.605 84.3563C199.467 84.4885 199.357 84.6476 199.282 84.8238C199.207 85 199.168 85.1896 199.168 85.3813C199.168 85.573 199.207 85.7626 199.282 85.9388C199.357 86.115 199.467 86.2741 199.605 86.4063C199.743 86.5386 199.907 86.6413 200.086 86.7083C200.265 86.7752 200.455 86.8051 200.646 86.7959H202.66C202.298 86.8133 201.956 86.9699 201.706 87.2333C201.456 87.4967 201.316 87.8466 201.316 88.2105C201.316 88.5745 201.456 88.9244 201.706 89.1878C201.956 89.4512 202.298 89.6078 202.66 89.6252H199.841C199.467 89.6252 199.108 89.7744 198.843 90.04C198.579 90.3056 198.43 90.6658 198.43 91.0414C198.43 91.417 198.579 91.7772 198.843 92.0428C199.108 92.3084 199.467 92.4576 199.841 92.4576H216.153C216.527 92.4576 216.886 92.3084 217.151 92.0428C217.415 91.7772 217.564 91.417 217.564 91.0414C217.564 90.6658 217.415 90.3056 217.151 90.04C216.886 89.7744 216.527 89.6252 216.153 89.6252H218.991C219.182 89.6343 219.372 89.6045 219.551 89.5375C219.73 89.4705 219.894 89.3678 220.032 89.2356C220.17 89.1033 220.28 88.9443 220.355 88.7681C220.43 88.5919 220.469 88.4022 220.469 88.2105C220.469 88.0189 220.43 87.8292 220.355 87.653C220.28 87.4768 220.17 87.3178 220.032 87.1855C219.894 87.0533 219.73 86.9505 219.551 86.8836C219.372 86.8166 219.182 86.7868 218.991 86.7959V86.7959Z" fill="black"/>
<path opacity="0.1" d="M125.092 77.5775H123.078C123.269 77.5866 123.459 77.5568 123.638 77.4898C123.817 77.4229 123.981 77.3202 124.119 77.1879C124.257 77.0556 124.367 76.8966 124.442 76.7204C124.517 76.5442 124.556 76.3545 124.556 76.1629C124.556 75.9712 124.517 75.7815 124.442 75.6053C124.367 75.4292 124.257 75.2701 124.119 75.1379C123.981 75.0056 123.817 74.9029 123.638 74.8359C123.459 74.7689 123.269 74.7391 123.078 74.7483H106.759C106.569 74.7391 106.378 74.7689 106.199 74.8359C106.02 74.9029 105.857 75.0056 105.719 75.1379C105.58 75.2701 105.47 75.4292 105.395 75.6053C105.32 75.7815 105.281 75.9712 105.281 76.1629C105.281 76.3545 105.32 76.5442 105.395 76.7204C105.47 76.8966 105.58 77.0556 105.719 77.1879C105.857 77.3202 106.02 77.4229 106.199 77.4898C106.378 77.5568 106.569 77.5866 106.759 77.5775H108.773C108.582 77.5684 108.392 77.5982 108.213 77.6652C108.034 77.7321 107.871 77.8349 107.732 77.9671C107.594 78.0994 107.484 78.2584 107.409 78.4346C107.334 78.6108 107.295 78.8005 107.295 78.9921C107.295 79.1838 107.334 79.3735 107.409 79.5497C107.484 79.7258 107.594 79.8849 107.732 80.0171C107.871 80.1494 108.034 80.2521 108.213 80.3191C108.392 80.3861 108.582 80.4159 108.773 80.4067H105.951C105.577 80.4067 105.218 80.556 104.954 80.8216C104.689 81.0871 104.54 81.4474 104.54 81.823C104.54 82.1986 104.689 82.5588 104.954 82.8244C105.218 83.09 105.577 83.2392 105.951 83.2392H122.267C122.641 83.2392 123 83.09 123.264 82.8244C123.529 82.5588 123.678 82.1986 123.678 81.823C123.678 81.4474 123.529 81.0871 123.264 80.8216C123 80.556 122.641 80.4067 122.267 80.4067H125.085C125.276 80.4159 125.467 80.3861 125.645 80.3191C125.824 80.2521 125.988 80.1494 126.126 80.0171C126.264 79.8849 126.374 79.7258 126.449 79.5497C126.525 79.3735 126.563 79.1838 126.563 78.9921C126.563 78.8005 126.525 78.6108 126.449 78.4346C126.374 78.2584 126.264 78.0994 126.126 77.9671C125.988 77.8349 125.824 77.7321 125.645 77.6652C125.467 77.5982 125.276 77.5684 125.085 77.5775H125.092Z" fill="black"/>
</g>
<path d="M88.3124 163.835C87.06 163.837 85.8594 164.335 84.9738 165.221C84.0883 166.107 83.5901 167.309 83.5887 168.562V179.618C83.5901 180.871 84.0883 182.073 84.9738 182.959C85.8594 183.845 87.06 184.343 88.3124 184.345H94.3038C95.5562 184.343 96.7569 183.845 97.6424 182.959C98.528 182.073 99.0261 180.871 99.0275 179.618V168.562C99.0261 167.309 98.528 166.107 97.6424 165.221C96.7569 164.335 95.5562 163.837 94.3038 163.835H88.3124Z" fill="#3F3D56"/>
<path d="M199.067 184.712H193.075C191.725 184.711 190.431 184.174 189.477 183.219C188.522 182.264 187.986 180.969 187.984 179.618V168.562C187.986 167.211 188.522 165.916 189.477 164.961C190.431 164.006 191.725 163.469 193.075 163.468H199.067C200.416 163.469 201.711 164.006 202.665 164.961C203.619 165.916 204.156 167.211 204.158 168.562V179.618C204.156 180.969 203.619 182.264 202.665 183.219C201.711 184.174 200.416 184.711 199.067 184.712V184.712Z" fill="#3F3D56"/>
<path d="M195.091 175.86H91.9203C87.2249 175.86 83.405 173.09 83.405 169.686V149.836L88.526 144.441H199.482L203.607 149.848V169.686C203.607 173.09 199.787 175.86 195.091 175.86Z" fill="#CCCCCC"/>
<path d="M199 154.371H89.1142L87.9976 137.239L88.7081 135.486L92.8387 125.316H194.532L200.117 136.865L199 154.371Z" fill="#CCCCCC"/>
<path d="M199.931 136.901L199.111 149.773H174.934V140.211L199.243 135.482L199.931 136.901Z" fill="white"/>
<path d="M112.812 140.211V149.773H88.9996L88.1835 137.269L88.8784 135.555L112.812 140.211Z" fill="white"/>
<path d="M193.919 128.258H93.4504L104.166 92.521C104.603 91.045 105.503 89.7489 106.733 88.8241C107.963 87.8994 109.458 87.395 110.997 87.3857L177.533 86.7516C179.141 86.736 180.708 87.2591 181.984 88.2377C183.26 89.2162 184.172 90.5939 184.575 92.1512L193.919 128.258Z" fill="#CCCCCC"/>
<path d="M186.185 124.879L101.168 123.871C101.061 123.869 100.955 123.843 100.86 123.793C100.764 123.744 100.682 123.672 100.619 123.585C100.556 123.498 100.515 123.397 100.498 123.291C100.481 123.185 100.489 123.076 100.522 122.973L108.672 97.5318C108.717 97.3931 108.804 97.2722 108.922 97.1863C109.039 97.1005 109.181 97.0543 109.327 97.0543H177.707C177.853 97.0543 177.994 97.1005 178.112 97.1863C178.229 97.272 178.317 97.3929 178.361 97.5315L186.847 123.982C186.88 124.086 186.888 124.196 186.871 124.303C186.853 124.411 186.81 124.512 186.746 124.6C186.681 124.688 186.596 124.759 186.499 124.807C186.401 124.856 186.294 124.88 186.185 124.879V124.879Z" fill="white"/>
<path d="M155.142 91.1127H132.227C132.034 91.1127 131.859 90.9225 131.77 90.6162C131.682 90.3025 131.694 89.9689 131.807 89.663L133.696 84.8818C133.793 84.6381 133.95 84.4927 134.117 84.4927H153.253C153.42 84.4927 153.577 84.6381 153.673 84.8818L155.563 89.663C155.675 89.9689 155.688 90.3025 155.599 90.6162C155.511 90.9225 155.335 91.1127 155.142 91.1127Z" fill="black"/>
<path d="M93.5136 127.523H78.4425V124.209C78.4437 123.137 78.8696 122.11 79.6269 121.352C80.3841 120.595 81.4108 120.168 82.4817 120.167H93.5136V127.523Z" fill="#CCCCCC"/>
<path d="M208.937 127.523H193.865V120.167H204.897C205.968 120.168 206.995 120.595 207.752 121.352C208.51 122.11 208.935 123.137 208.937 124.209V127.523Z" fill="#CCCCCC"/>
<path d="M76.6794 179.189L3.00049 205.67L3.31326 206.541L76.9922 180.06L76.6794 179.189Z" fill="#3F3D56"/>
<path d="M210.235 179.191L209.923 180.062L283.604 206.537L283.916 205.665L210.235 179.191Z" fill="#3F3D56"/>
<path d="M147.784 198.392H143.373V192.693H147.784V198.392ZM147.784 186.993H143.373V181.294H147.784V186.993Z" fill="#E6E6E6"/>
<path d="M147.784 222H143.373V216.301H147.784V222ZM147.784 210.601H143.373V204.902H147.784V210.601Z" fill="#E6E6E6"/>
<path d="M341.562 202.313H336.705L334.394 183.568H341.562V202.313Z" fill="#FFB8B8"/>
<path d="M342.801 207.024H327.139V206.825C327.141 205.208 327.784 203.658 328.927 202.515C330.07 201.371 331.619 200.728 333.236 200.726H342.801L342.801 207.024Z" fill="#2F2E41"/>
<path d="M404.198 193.104L400.034 195.607L388.404 180.73L394.549 177.036L404.198 193.104Z" fill="#FFB8B8"/>
<path d="M394.26 204.574L394.158 204.404C393.327 203.017 393.08 201.357 393.471 199.788C393.862 198.219 394.859 196.869 396.244 196.035L404.443 191.106L407.685 196.504L394.26 204.574Z" fill="#2F2E41"/>
<path d="M342.825 198.444L342.741 198.444C340.378 198.437 338.018 198.301 335.67 198.037C334.775 197.948 333.804 197.852 332.634 197.756L332.594 197.749C331.796 197.512 331.774 190.023 332.112 164.389C332.285 151.26 332.482 136.379 332.248 126.902L332.246 126.809L332.316 126.747C340.98 119.207 352.108 116.381 363.648 118.789L363.733 118.807L363.778 118.882C368.552 126.963 375.759 138.604 382.73 149.862C398.731 175.704 403.307 183.304 402.806 183.878L402.745 183.924C401.652 184.471 400.832 184.892 400.135 185.25C397.799 186.448 396.832 186.944 391.639 189.084L391.51 189.136L391.417 189.034C375.181 171.234 361.67 151.35 353.313 132.97C352.337 139.245 351.151 147.439 349.899 156.097C346.298 180.993 343.864 197.387 342.884 198.385L342.825 198.444Z" fill="#2F2E41"/>
<path d="M368.042 47.415C369.677 40.6603 371.062 33.0417 367.979 26.8205C365.839 22.5039 357.924 21.0503 353.387 22.6054C348.849 24.1605 345.569 28.3795 344.126 32.9797C342.683 37.5798 342.851 42.5368 343.48 47.3189C351.825 47.1585 360.169 46.9981 368.042 47.415Z" fill="#2F2E41"/>
<path d="M353.96 47.4132C359.334 47.4132 363.691 43.0543 363.691 37.6773C363.691 32.3004 359.334 27.9415 353.96 27.9415C348.586 27.9415 344.229 32.3004 344.229 37.6773C344.229 43.0543 348.586 47.4132 353.96 47.4132Z" fill="#FFB8B8"/>
<path d="M365.856 35.6718C365.887 34.0332 365.588 32.4051 364.978 30.8843C364.367 29.3634 363.458 27.9808 362.303 26.8187C361.148 25.6565 359.771 24.7385 358.255 24.1192C356.738 23.4998 355.113 23.1918 353.475 23.2134C351.837 23.235 350.22 23.5858 348.72 24.2449C347.221 24.904 345.869 25.8581 344.745 27.0503C343.621 28.2425 342.748 29.6486 342.178 31.185C341.608 32.7214 341.352 34.3568 341.426 35.994C349.755 36.0117 358.084 36.0294 365.856 35.6718Z" fill="#2F2E41"/>
<path d="M347.2 128.817C356.881 128.774 366.498 130.385 375.637 133.58C375.955 118.234 370.674 102.858 361.126 91.3562L361.055 91.2703L361.091 91.1648C363.641 83.7918 366.278 76.1709 368.633 68.5877L368.597 68.4603C366.945 62.5843 363.399 56.6465 357.757 50.3072C357.145 49.6728 356.315 49.295 355.435 49.2504C354.555 49.2058 353.69 49.4977 353.017 50.067C342.988 59.2654 337.535 73.0475 338.786 86.0352L338.79 86.0734L338.779 86.1103C334.361 101.086 332.757 108.777 331.342 115.564C330.31 120.514 329.416 124.801 327.622 130.926C334.054 129.525 340.617 128.819 347.2 128.817V128.817Z" fill="#3F3D56"/>
<path opacity="0.1" d="M361.453 81.4773L347.08 112.783L338.87 104.468L361.453 81.4773Z" fill="black"/>
<path d="M329.193 98.866L330.195 100.814C330.204 100.832 330.206 100.853 330.2 100.872C330.193 100.892 330.18 100.908 330.162 100.917L330.114 100.942L335.334 111.09C335.478 111.371 335.505 111.698 335.409 111.999C335.313 112.299 335.101 112.549 334.82 112.694L328.482 115.958C328.343 116.029 328.192 116.073 328.036 116.085C327.88 116.098 327.723 116.08 327.575 116.033C327.426 115.985 327.288 115.908 327.168 115.807C327.049 115.706 326.951 115.583 326.88 115.444L326.88 115.443L321.842 105.651L321.807 105.669C321.795 105.676 321.78 105.677 321.766 105.673C321.753 105.668 321.741 105.659 321.735 105.646L321.165 104.537C321.161 104.531 321.159 104.524 321.159 104.517C321.158 104.51 321.159 104.503 321.161 104.496C321.163 104.489 321.167 104.483 321.171 104.478C321.176 104.472 321.182 104.468 321.188 104.465V104.465L321.223 104.447L321.008 104.029L320.973 104.047C320.959 104.054 320.944 104.055 320.93 104.051C320.915 104.046 320.903 104.036 320.897 104.022L320.334 102.929C320.327 102.916 320.326 102.9 320.331 102.886C320.335 102.872 320.345 102.86 320.358 102.853L320.394 102.835L320.1 102.265L320.065 102.283C320.053 102.289 320.039 102.29 320.027 102.286C320.014 102.282 320.003 102.274 319.997 102.262L319.997 102.262L319.69 101.665C319.684 101.653 319.683 101.639 319.687 101.627C319.691 101.614 319.7 101.603 319.712 101.597L319.748 101.579L319.126 100.37C318.982 100.09 318.955 99.7629 319.051 99.4622C319.147 99.1615 319.359 98.9114 319.64 98.7669L325.977 95.5034C326.258 95.3589 326.585 95.3318 326.885 95.4282C327.186 95.5245 327.436 95.7363 327.58 96.017L329.042 98.8579L329.09 98.833C329.108 98.8238 329.129 98.8221 329.148 98.8283C329.167 98.8345 329.183 98.848 329.193 98.866V98.866Z" fill="#3F3D56"/>
<path d="M327.181 96.4874L334.872 111.439C334.964 111.617 334.981 111.824 334.92 112.015C334.858 112.206 334.724 112.365 334.546 112.456L328.479 115.58C328.302 115.672 328.095 115.69 327.904 115.629C327.714 115.568 327.555 115.434 327.463 115.256L327.462 115.254L319.771 100.303C319.726 100.215 319.698 100.118 319.69 100.019C319.682 99.9206 319.693 99.8211 319.724 99.7266C319.754 99.6321 319.802 99.5445 319.867 99.4688C319.931 99.3931 320.009 99.3307 320.097 99.2853L320.097 99.2853L321.005 98.8177L321.065 98.9343C321.103 99.007 321.154 99.0715 321.216 99.1243C321.278 99.1772 321.351 99.2172 321.428 99.2421C321.506 99.267 321.588 99.2764 321.669 99.2696C321.751 99.2629 321.83 99.2402 321.903 99.2028L324.988 97.614C325.135 97.5385 325.245 97.4078 325.296 97.2507C325.346 97.0936 325.332 96.9229 325.256 96.7762L325.196 96.6596L326.164 96.1613C326.342 96.0696 326.549 96.0524 326.74 96.1134C326.931 96.1745 327.089 96.3089 327.181 96.4869L327.181 96.4874Z" fill="black"/>
<path d="M329.41 114.754C329.991 114.713 330.556 114.546 331.066 114.263C331.575 113.98 332.016 113.59 332.358 113.118C332.7 112.646 332.935 112.105 333.045 111.533C333.156 110.961 333.14 110.372 332.998 109.806L344.84 102.043L338.086 99.1241L327.876 106.944C326.943 107.245 326.152 107.878 325.655 108.724C325.157 109.569 324.987 110.568 325.176 111.53C325.365 112.493 325.901 113.353 326.681 113.947C327.461 114.541 328.432 114.828 329.41 114.754V114.754Z" fill="#FFB8B8"/>
<path d="M340.805 109.161L340.656 109.055C337.838 106.98 334.709 104.834 331.683 102.758L331.501 102.633L331.644 102.466C338.103 94.9056 344.568 87.0088 350.822 79.3697C350.817 79.3575 350.813 79.3486 350.81 79.3422L350.868 79.3122L350.893 79.2818L350.907 79.2929L350.944 79.2737L350.774 79.2868L348.847 64.1634C347.106 61.7872 346.772 57.0694 349.054 53.7761C351.417 50.3645 356.417 49.2228 359.754 51.3317C360.628 51.9189 361.359 52.6952 361.892 53.6033C362.426 54.5113 362.749 55.5278 362.837 56.5776C362.961 57.5128 362.874 58.4638 362.584 59.3614C362.293 60.2589 361.806 61.0802 361.158 61.7653C361.977 69.7689 362.009 76.9228 362.039 83.8427L362.04 83.9118L361.997 83.9687C355.33 92.4428 348.007 100.872 340.925 109.023L340.805 109.161Z" fill="#3F3D56"/>
<path d="M143.557 67.8747C155.64 67.8747 165.436 58.0738 165.436 45.9838C165.436 33.8937 155.64 24.0928 143.557 24.0928C131.473 24.0928 121.677 33.8937 121.677 45.9838C121.677 58.0738 131.473 67.8747 143.557 67.8747Z" fill="black"/>
<path d="M141.471 55.2244L134.923 46.7999L138.731 43.8363L141.832 47.8252L152.307 36.7617L155.81 40.0821L141.471 55.2244Z" fill="white"/>
<path d="M427.537 207.626H316.959C316.837 207.626 316.719 207.578 316.632 207.491C316.545 207.404 316.497 207.286 316.497 207.163C316.497 207.041 316.545 206.923 316.632 206.836C316.719 206.749 316.837 206.701 316.959 206.701H427.537C427.66 206.701 427.778 206.749 427.864 206.836C427.951 206.923 428 207.041 428 207.163C428 207.286 427.951 207.404 427.864 207.491C427.778 207.578 427.66 207.626 427.537 207.626Z" fill="#3F3D56"/>
<defs>
<clipPath id="clip0_225_2">
<rect width="331" height="268" fill="white" transform="translate(-10)"/>
</clipPath>
</defs>
</svg>
