<svg width="39" height="39" viewBox="0 0 39 39" fill="none" xmlns="http://www.w3.org/2000/svg">
<path d="M36.5625 9.75H34.125V6.09375C34.125 5.42039 33.5796 4.875 32.9062 4.875H25.5938C24.9204 4.875 24.375 5.42039 24.375 6.09375V9.75H14.625V6.09375C14.625 5.42039 14.0796 4.875 13.4062 4.875H6.09375C5.42039 4.875 4.875 5.42039 4.875 6.09375V9.75H2.4375C1.09154 9.75 0 10.8415 0 12.1875V31.6875C0 33.0335 1.09154 34.125 2.4375 34.125H36.5625C37.9085 34.125 39 33.0335 39 31.6875V12.1875C39 10.8415 37.9085 9.75 36.5625 9.75ZM14.625 20.1094C14.625 20.4461 14.3523 20.7188 14.0156 20.7188H5.48438C5.1477 20.7188 4.875 20.4461 4.875 20.1094V18.8906C4.875 18.5539 5.1477 18.2812 5.48438 18.2812H14.0156C14.3523 18.2812 14.625 18.5539 14.625 18.8906V20.1094ZM34.125 20.1094C34.125 20.4461 33.8523 20.7188 33.5156 20.7188H30.4688V23.7656C30.4688 24.1023 30.1961 24.375 29.8594 24.375H28.6406C28.3039 24.375 28.0312 24.1023 28.0312 23.7656V20.7188H24.9844C24.6477 20.7188 24.375 20.4461 24.375 20.1094V18.8906C24.375 18.5539 24.6477 18.2812 24.9844 18.2812H28.0312V15.2344C28.0312 14.8977 28.3039 14.625 28.6406 14.625H29.8594C30.1961 14.625 30.4688 14.8977 30.4688 15.2344V18.2812H33.5156C33.8523 18.2812 34.125 18.5539 34.125 18.8906V20.1094Z" fill="#00FDED"/>
</svg>
