<svg width="33" height="33" viewBox="0 0 33 33" fill="none" xmlns="http://www.w3.org/2000/svg">
<path d="M16.5 16.5C21.0568 16.5 24.75 12.8068 24.75 8.25C24.75 3.69316 21.0568 0 16.5 0C11.9432 0 8.25 3.69316 8.25 8.25C8.25 12.8068 11.9432 16.5 16.5 16.5ZM22.275 18.5625H21.1986C19.7678 19.2199 18.1758 19.5938 16.5 19.5938C14.8242 19.5938 13.2387 19.2199 11.8014 18.5625H10.725C5.94258 18.5625 2.0625 22.4426 2.0625 27.225V29.9062C2.0625 31.6143 3.44824 33 5.15625 33H27.8438C29.5518 33 30.9375 31.6143 30.9375 29.9062V27.225C30.9375 22.4426 27.0574 18.5625 22.275 18.5625Z" fill="#00FDED"/>
</svg>
